<svg width="24" height="24" viewBox="0 0 24 24" fill="none" xmlns="http://www.w3.org/2000/svg">
<path d="M4.96967 4.96967C5.26256 4.67678 5.73744 4.67678 6.03033 4.96967L12 10.9393L17.9697 4.96967C18.2626 4.67678 18.7374 4.67678 19.0303 4.96967C19.3232 5.26256 19.3232 5.73744 19.0303 6.03033L13.0607 12L19.0303 17.9697C19.3232 18.2626 19.3232 18.7374 19.0303 19.0303C18.7374 19.3232 18.2626 19.3232 17.9697 19.0303L12 13.0607L6.03033 19.0303C5.73744 19.3232 5.26256 19.3232 4.96967 19.0303C4.67678 18.7374 4.67678 18.2626 4.96967 17.9697L10.9393 12L4.96967 6.03033C4.67678 5.73744 4.67678 5.26256 4.96967 4.96967Z" fill="black"/>
</svg>
