<svg width="95" height="121" viewBox="0 0 95 121" fill="none" xmlns="http://www.w3.org/2000/svg">
<g opacity="0.2" filter="url(#filter0_f_3278_416)">
<ellipse cx="43.5744" cy="18.4274" rx="43.5744" ry="18.4274" transform="matrix(0.962144 0.272543 -0.28659 0.958053 10.8563 61.9258)" fill="#2FA274"/>
</g>
<path d="M54.6351 43.3018L48.9802 40.1283L49.6147 40.125L55.2693 43.2983L54.6351 43.3018Z" fill="#717680"/>
<path d="M53.9996 43.3076L48.3449 40.1343L48.9798 40.1289L54.6347 43.3025L53.9996 43.3076Z" fill="#717680"/>
<path d="M36.7658 67.0064L31.1111 63.833C40.4324 58.0382 45.6228 47.7429 48.3456 40.1328L54.0002 43.3061C51.2775 50.9164 46.0871 61.2117 36.7658 67.0064Z" fill="#717680"/>
<path d="M53.9999 43.3097L54.635 43.3043L55.2692 43.3008C52.3936 51.3801 46.859 62.3073 36.847 68.5301L36.7654 67.0097C46.0867 61.2153 51.2771 50.92 53.9999 43.3097Z" fill="#414651"/>
<path d="M36.8472 68.5335L31.1923 65.3602L31.111 63.8398L36.7657 67.0132L36.8472 68.5335Z" fill="#717680"/>
<path d="M48.05 4.44141L53.7047 7.61473C53.7424 7.63589 53.7804 7.65775 53.8181 7.68008C58.3795 10.3465 59.058 27.319 53.3583 43.3072L47.7036 40.1339C53.4033 24.1457 52.7248 7.17298 48.1633 4.50676C48.1255 4.48443 48.0878 4.46256 48.05 4.44141Z" fill="#717680"/>
<path d="M50.0861 1.09578L55.741 4.2691C53.7242 3.13735 51.4504 3.24032 48.9282 4.64643L43.2736 1.47311C45.7952 0.0670016 48.0693 -0.0359703 50.0861 1.09578Z" fill="#717680"/>
<path d="M48.9278 4.65285C51.5001 3.21877 53.8143 3.14001 55.8608 4.34464C61.6688 7.76787 61.7 27.0657 55.9112 43.3026L55.2692 43.3061L54.635 43.3096L53.3586 43.3167C59.0583 27.3288 58.3798 10.356 53.8185 7.68958C52.3115 6.79457 50.6974 6.82137 48.8959 7.8257C48.7469 7.90869 48.5967 7.99826 48.445 8.09489C42.9907 11.5346 37.8648 22.0074 37.8137 22.1071L35.5287 21.4878C35.7709 20.9969 41.4959 9.30751 48.2566 5.05416C48.482 4.91052 48.706 4.77651 48.9278 4.65285Z" fill="#414651"/>
<path d="M35.5285 21.4807L29.8738 18.3074C30.1158 17.8165 35.8411 6.12708 42.6015 1.87396C42.8272 1.73009 43.0512 1.59632 43.2729 1.47266L48.9276 4.64598C48.7058 4.76964 48.4818 4.90364 48.2562 5.04728C41.4957 9.3004 35.7707 20.9901 35.5285 21.4807Z" fill="#717680"/>
<path d="M76.5889 55.6026L70.934 52.4295L71.5685 52.4258L77.2231 55.5993L76.5889 55.6026Z" fill="#717680"/>
<path d="M75.9542 55.6123L70.2996 52.4388L70.9345 52.4336L76.5894 55.6067L75.9542 55.6123Z" fill="#717680"/>
<path d="M58.7198 79.311L53.0649 76.1377C62.3862 70.3429 67.5765 60.0478 70.2993 52.4375L75.954 55.6108C73.2314 63.2211 68.0411 73.5164 58.7198 79.311Z" fill="#717680"/>
<path d="M75.9538 55.6144L76.5887 55.609L77.2229 55.6055C74.3475 63.6848 68.8126 74.6122 58.8007 80.8348L58.7191 79.3146C68.0406 73.5198 73.231 63.2244 75.9538 55.6144Z" fill="#414651"/>
<path d="M58.801 80.8343L53.1464 77.6608L53.0648 76.1406L58.7195 79.3139L58.801 80.8343Z" fill="#717680"/>
<path d="M70.0046 16.7461L75.6592 19.9194C75.697 19.9406 75.7349 19.9624 75.7727 19.985C80.3342 22.6512 81.0125 39.624 75.3128 55.6121L69.6581 52.4388C75.3578 36.4506 74.6793 19.4779 70.1178 16.8117C70.08 16.7894 70.0423 16.7675 70.0046 16.7461Z" fill="#717680"/>
<path d="M72.0399 13.4006L77.6945 16.5739C75.6778 15.4421 73.4039 15.5451 70.8818 16.9512L65.2271 13.7779C67.7493 12.3718 70.0231 12.2686 72.0399 13.4006Z" fill="#717680"/>
<path d="M70.882 16.9497C73.4543 15.5156 75.7686 15.4369 77.815 16.6415C83.6231 20.0647 83.6542 39.3626 77.8654 55.5994L77.2234 55.603L76.5892 55.6065L75.3128 55.6138C81.0125 39.6256 80.3343 22.6529 75.7727 19.9867C74.2657 19.0917 72.6517 19.1185 70.8504 20.1226C70.7014 20.2056 70.5512 20.2954 70.3992 20.3918C64.9449 23.8314 59.8191 34.3043 59.7679 34.4039L57.4829 33.7847C57.7251 33.294 63.4502 21.6044 70.2108 17.3513C70.4362 17.2074 70.6602 17.0734 70.882 16.9497Z" fill="#414651"/>
<path d="M57.4827 33.7856L51.8281 30.6123C52.0703 30.1214 57.7953 18.432 64.5557 14.1787C64.7814 14.035 65.0054 13.901 65.2272 13.7773L70.8818 16.9507C70.66 17.0743 70.4361 17.2083 70.2104 17.352C63.45 21.6053 57.725 33.295 57.4827 33.7856Z" fill="#717680"/>
<path d="M13.4016 85.6938C13.2572 85.6134 13.1801 85.4862 13.1805 85.3101C11.502 84.3766 10.1303 82.0823 10.1379 80.2208C9.97746 80.1312 9.9015 80.0005 9.90199 79.8359C9.89858 81.6431 10.9922 84.2473 13.4016 85.6938Z" fill="#D5D7DA"/>
<path d="M48.945 105.509L45.3906 103.528L41.8362 101.546L38.2818 99.5641L34.7274 97.5825L31.173 95.6006L27.6186 93.619L24.0642 91.6374L20.5098 89.6557L16.9554 87.6741L13.4011 85.6923C13.2569 85.6119 13.18 85.4849 13.1805 85.3086L48.7247 105.126C48.7237 105.302 48.8006 105.429 48.945 105.509Z" fill="#D5D7DA"/>
<path d="M65.4435 96.293C65.4057 97.2096 65.265 98.225 64.0236 99.6647C62.9982 100.854 61.4085 102.085 59.5468 103.131C60.3984 102.653 60.9274 101.638 60.9316 100.197C63.6597 98.6663 65.4415 97.0859 65.4435 96.293Z" fill="#D5D7DA"/>
<path d="M59.5466 103.125L58.0555 103.962C58.9071 103.484 59.4361 102.469 59.4402 101.028L60.9311 100.191C60.9272 101.632 60.3985 102.647 59.5466 103.125Z" fill="#D5D7DA"/>
<path d="M9.90198 79.8358L9.91537 75.2526L9.92876 70.6694L9.94215 66.0862L9.95554 61.503L9.96893 56.9199L9.98232 52.3367L9.99571 47.7535L10.0091 43.1703L10.0225 38.5871L10.0359 34.0039C10.0354 34.1685 10.1116 34.2989 10.2718 34.3883L10.1372 80.2202C9.97769 80.1311 9.90149 80.0004 9.90198 79.8358Z" fill="#D5D7DA"/>
<path d="M58.0556 103.965C52.1336 107.185 49.8169 105.965 48.9451 105.506C48.801 105.426 48.7243 105.299 48.7248 105.123C50.4034 106.061 51.784 105.301 51.7874 103.437C52.7198 103.957 56.1467 102.88 59.4403 101.031C59.4362 102.472 58.9072 103.487 58.0556 103.965Z" fill="#D5D7DA"/>
<path d="M65.5779 50.4648L65.5645 55.048L65.5511 59.6312L65.5377 64.2144L65.5244 68.7976L65.511 73.3808L65.4976 77.964L65.4842 82.5472L65.4708 87.1304L65.4574 91.7135L65.444 96.2967C65.4418 97.0899 63.66 98.67 60.9321 100.201L61.0668 54.3688C63.7939 52.8379 65.5757 51.2578 65.5779 50.4648Z" fill="#D5D7DA"/>
<path d="M22.6044 15.3306C26.7228 13.0916 30.1971 12.0675 33.8691 12.0097C38.6539 11.9347 42.8084 14.1533 44.3724 14.9886C43.6695 14.5967 41.3672 15.3118 38.634 16.8458C32.3748 13.3561 26.7009 13.0316 22.6044 15.3306Z" fill="#D5D7DA"/>
<path d="M59.5748 55.2L61.0657 54.3633L60.9311 100.195L59.4402 101.032L59.5748 55.2Z" fill="#D5D7DA"/>
<path d="M21.1129 16.1644L22.6038 15.3276C26.7004 13.0286 32.3743 13.3531 38.6334 16.8428L37.1425 17.6795C30.8834 14.1898 25.2095 13.8654 21.1129 16.1644Z" fill="#535862"/>
<path d="M51.9225 57.6091C52.8549 58.1289 56.2817 57.0517 59.5754 55.2031L59.4407 101.035C56.1471 102.883 52.72 103.961 51.7878 103.441L51.9225 57.6091Z" fill="#D5D7DA"/>
<path d="M10.0367 33.9998C10.1005 32.2942 10.1662 30.5303 10.5937 28.9088C10.9981 27.376 11.4163 25.7912 12.7831 23.5905C14.4836 20.8526 17.2862 18.3537 21.1132 16.1636C25.2098 13.8646 30.8837 14.189 37.1428 17.6788C33.8492 19.5271 31.1758 21.8651 31.1727 22.8995C19.6757 16.4883 10.3086 21.6281 10.2723 34.3842C10.1124 34.2951 10.0362 34.1644 10.0367 33.9998Z" fill="#D5D7DA"/>
<path d="M44.3719 14.9845C46.3723 16.1875 46.9758 16.5505 47.8635 17.2435C49.5121 18.5314 50.7031 19.4619 52.6911 21.4826C55.1003 23.9318 57.4874 27.0546 59.4131 30.2756C61.7203 34.1354 65.5894 41.8898 65.5777 50.4586C65.5756 51.2515 63.7937 52.8316 61.0659 54.3626C61.1065 40.5693 51.0639 23.7721 38.6335 16.8418C41.3667 15.308 43.669 14.5928 44.3719 14.9845Z" fill="#D5D7DA"/>
<path d="M37.1426 17.6844L38.6335 16.8477C51.0639 23.778 61.1063 40.5751 61.0658 54.3684L59.5749 55.2052C59.6154 41.4119 49.573 24.615 37.1426 17.6844Z" fill="#535862"/>
<path d="M31.1723 22.9041C42.6683 29.3123 51.9601 44.854 51.9216 57.6099C51.8768 72.8871 51.8321 88.1645 51.787 103.442C51.7834 105.305 50.4027 106.065 48.7244 105.127C36.8763 98.5214 25.0283 91.9157 13.1802 85.31C11.5016 84.3764 10.13 82.0821 10.1375 80.2206C10.1823 64.9432 10.2271 49.666 10.2722 34.3887C10.3082 21.6327 19.6755 16.4928 31.1723 22.9041Z" fill="#A4A7AE"/>
<path d="M31.1724 22.8965C31.1753 21.8619 33.8487 19.5241 37.1426 17.6758C49.573 24.6062 59.6154 41.4033 59.575 55.1966C56.2813 57.0451 52.8542 58.1223 51.9221 57.6025C51.9605 44.8465 42.6687 29.3048 31.1724 22.8965Z" fill="#D5D7DA"/>
<path d="M46.8332 101.319L40.1232 105.085C40.9524 104.62 41.466 103.63 41.4702 102.223L48.1802 98.457C48.1761 99.8643 47.6621 100.854 46.8332 101.319Z" fill="#6FD5AC"/>
<path d="M6.73785 49.3281L13.4479 45.5625C14.2878 45.0912 15.451 45.1582 16.7357 45.8743L10.0257 49.64C8.74097 48.9237 7.57776 48.8567 6.73785 49.3281Z" fill="#6FD5AC"/>
<path d="M41.5582 72.3515L48.2682 68.5859L48.1805 98.4492L41.4705 102.215L41.5582 72.3515Z" fill="#6FD5AC"/>
<path d="M10.0259 49.6447L16.736 45.8789L43.6637 60.8923L36.9536 64.6576L10.0259 49.6447Z" fill="#6FD5AC"/>
<path d="M41.5615 72.352L41.5376 81.4998L41.4661 102.209C41.4661 105.059 39.3955 106.185 36.8249 104.76L9.90572 89.7509C7.35946 88.326 5.28842 84.8783 5.31228 82.0513L5.35999 61.3194L5.38385 52.1946C5.40771 49.3676 7.47851 48.2185 10.025 49.6434L36.9444 64.6521C39.5146 66.077 41.5615 69.5247 41.5615 72.352Z" fill="#37BE88"/>
<path d="M36.9532 64.6562L43.6633 60.8906C46.2161 62.3139 48.2762 65.7595 48.2679 68.5924L41.5579 72.3579C41.5662 69.5252 39.5063 66.0797 36.9532 64.6562Z" fill="#6FD5AC"/>
<path d="M34.4897 11.9444L36.8268 10.6328C36.0974 11.0421 35.5046 11.6797 35.0905 12.5211L32.7531 13.8327C33.1675 12.9913 33.76 12.3537 34.4897 11.9444Z" fill="#717680"/>
<path d="M33.5917 10.4531L35.9288 9.14148C37.6486 8.17641 40.0244 8.30853 42.6486 9.77153L40.3114 11.0831C37.6873 9.62013 35.3117 9.48777 33.5917 10.4531Z" fill="#717680"/>
<path d="M40.3111 11.0803C44.4186 13.3703 47.9036 18.2196 49.2148 23.0099L47.8493 22.2485C46.6096 18.2979 43.7053 14.3845 40.3069 12.4899C36.9193 10.6011 34.012 11.2744 32.7533 13.832L31.3878 13.0706C32.7227 9.75572 36.214 8.79606 40.3111 11.0803Z" fill="#535862"/>
<path d="M40.3113 11.0811L42.6484 9.76953C46.7559 12.0596 50.2409 16.9089 51.5524 21.6992L49.215 23.0108C47.9038 18.2205 44.4188 13.3712 40.3113 11.0811Z" fill="#717680"/>
<path d="M47.2178 58.3591L14.8424 40.3089V32.1758L47.2178 50.226V58.3591Z" fill="#414651"/>
<path d="M45.3275 51.8179L16.7324 35.8751V34.8242L45.3275 50.767V51.8179Z" fill="#414651"/>
<path d="M44.5557 54.7922L39.5656 52.0101C39.1393 51.7724 38.7939 51.1351 38.7939 50.5863C38.7939 50.0376 39.1393 49.7854 39.5656 50.0231L44.5557 52.8052C44.9819 53.0429 45.3274 53.6802 45.3274 54.2289C45.3274 54.7776 44.9819 55.0299 44.5557 54.7922Z" fill="#95E0C2"/>
<path d="M60.3089 81.1004L57.9187 79.7592L57.8992 73.1641L60.2894 74.5055L60.3089 81.1004Z" fill="#717680"/>
<path d="M61.3404 69.6697L63.7306 71.0112C63.3649 70.8059 62.8578 70.8355 62.2966 71.1485L59.9064 69.8072C60.4676 69.4943 60.9747 69.4645 61.3404 69.6697Z" fill="#717680"/>
<path d="M62.2962 71.1508C63.4112 70.5292 64.313 71.0253 64.3164 72.2624L64.3359 78.8575L60.3087 81.1029L60.2892 74.5077C60.2855 73.2707 61.1812 71.7726 62.2962 71.1508Z" fill="#414651"/>
<path d="M60.2894 74.507L57.8992 73.1655C57.8956 71.9284 58.7912 70.4302 59.9063 69.8086L62.2965 71.1498C61.1815 71.7716 60.2858 73.2697 60.2894 74.507Z" fill="#717680"/>
<path d="M17.1989 42.0047L16.4618 42.4183C16.3847 42.4615 16.3012 42.4622 16.2142 42.4136L16.9514 42C17.0384 42.0486 17.1218 42.0479 17.1989 42.0047Z" fill="#37BE88"/>
<path d="M18.1337 43.2205L17.3965 43.6341C17.5371 43.5551 17.6236 43.3874 17.6241 43.1519L18.3613 42.7383C18.3606 42.9739 18.2742 43.1415 18.1337 43.2205Z" fill="#37BE88"/>
<path d="M15.9729 38.2304L16.7108 37.8164C16.4425 37.9669 16.2526 38.6237 16.25 39.5178C16.2465 40.6747 16.5579 41.7844 16.9523 42.0042L16.2144 42.4182C15.82 42.1984 15.5086 41.0887 15.5123 39.932C15.5147 39.0377 15.7046 38.3811 15.9729 38.2304Z" fill="#37BE88"/>
<path d="M17.6416 37.6523L18.3792 37.2383L18.3631 42.7334L17.6252 43.1474L17.6416 37.6523Z" fill="#37BE88"/>
<path d="M15.2242 35.2092L15.9618 34.7952C16.2199 34.6504 16.578 34.6718 16.9731 34.8921L16.2352 35.3061C15.8401 35.0858 15.482 35.0646 15.2242 35.2092Z" fill="#37BE88"/>
<path d="M16.2353 35.3062C17.0173 35.7421 17.6434 36.7894 17.641 37.6574L17.6249 43.1525C17.6235 43.6272 17.2749 43.8263 16.8337 43.5804L15.5773 42.8798C15.1495 42.6414 14.7965 42.0509 14.798 41.5762L14.814 36.0811C14.8165 35.2134 15.4533 34.8701 16.2353 35.3062ZM16.2144 42.4181C16.6022 42.6341 16.9189 41.8748 16.9223 40.7181C16.9257 39.5612 16.6144 38.4518 16.2268 38.2355C15.8324 38.0157 15.5157 38.7748 15.5123 39.932C15.5086 41.0886 15.82 42.198 16.2144 42.4181Z" fill="#95E0C2"/>
<path d="M16.2357 35.3046L16.9736 34.8906C17.7556 35.3265 18.3817 36.3738 18.3791 37.2416L17.6414 37.6556C17.6438 36.7878 17.0177 35.7405 16.2357 35.3046Z" fill="#37BE88"/>
<path d="M60.0161 60.5516L60.7533 60.9652C60.8304 61.0084 60.9138 61.0091 61.0009 60.9605L60.2637 60.5469C60.1766 60.5955 60.0932 60.5948 60.0161 60.5516Z" fill="#37BE88"/>
<path d="M59.0816 61.7673L59.8185 62.1809C59.678 62.102 59.5914 61.9343 59.5909 61.6988L58.8537 61.2852C58.8547 61.5207 58.9408 61.6884 59.0816 61.7673Z" fill="#37BE88"/>
<path d="M61.2431 56.7773L60.5052 56.3633C60.7735 56.5137 60.9634 57.1706 60.966 58.0649C60.9694 59.2218 60.6581 60.3315 60.2637 60.551L61.0016 60.965C61.396 60.7452 61.7073 59.6356 61.7039 58.4789C61.7013 57.5844 61.5114 56.9277 61.2431 56.7773Z" fill="#37BE88"/>
<path d="M59.5753 56.1992L58.8376 55.7852L58.8537 61.2803L59.5913 61.6945L59.5753 56.1992Z" fill="#37BE88"/>
<path d="M61.9921 53.7561L61.2544 53.3421C60.9966 53.1973 60.6382 53.2187 60.2433 53.439L60.981 53.853C61.3761 53.6327 61.7342 53.6113 61.9921 53.7561Z" fill="#37BE88"/>
<path d="M62.4024 54.6201L62.4185 60.1152C62.4199 60.5898 62.0667 61.1804 61.6389 61.4188L60.3825 62.1194C59.9413 62.3653 59.5927 62.1659 59.5913 61.6915L59.5752 56.1961C59.5728 55.3284 60.1989 54.281 60.9809 53.8452C61.7629 53.4093 62.4 53.7523 62.4024 54.6201ZM61.0018 60.9571C61.3962 60.7372 61.7076 59.6276 61.7042 58.4709C61.7008 57.314 61.384 56.5547 60.9897 56.7745C60.6018 56.9905 60.2905 58.1002 60.2941 59.2571C60.2973 60.4137 60.6143 61.1731 61.0018 60.9571Z" fill="#95E0C2"/>
<path d="M60.9809 53.8515L60.2433 53.4375C59.4613 53.8734 58.8352 54.9207 58.8376 55.7885L59.5753 56.2025C59.5728 55.3347 60.199 54.2874 60.9809 53.8515Z" fill="#37BE88"/>
<path d="M39.7766 72.8374L39.6814 99.7523C39.6814 102.303 37.8015 103.338 35.5162 102.051L24.9962 96.1895L21.878 94.4427L11.239 88.5127C8.95416 87.2257 7.0976 84.1227 7.0976 81.5712L7.16917 54.6568C7.16917 52.1055 9.04959 51.0713 11.3582 52.3585L21.8783 58.2196L24.9964 59.9664L35.6116 65.8962C37.9203 67.1834 39.7766 70.2862 39.7766 72.8374Z" fill="#37BE88"/>
<path d="M24.9962 59.9733V96.1966L21.8781 94.4499V58.2266L24.9962 59.9733Z" fill="#414651"/>
<defs>
<filter id="filter0_f_3278_416" x="2.53938" y="67.4758" width="89.9213" height="47.9586" filterUnits="userSpaceOnUse" color-interpolation-filters="sRGB">
<feFlood flood-opacity="0" result="BackgroundImageFix"/>
<feBlend mode="normal" in="SourceGraphic" in2="BackgroundImageFix" result="shape"/>
<feGaussianBlur stdDeviation="1.35" result="effect1_foregroundBlur_3278_416"/>
</filter>
</defs>
</svg>
