<svg width="25" height="24" viewBox="0 0 25 24" fill="none" xmlns="http://www.w3.org/2000/svg">
<path fill-rule="evenodd" clip-rule="evenodd" d="M1.10896 4.93853C0.5 6.4087 0.5 8.27247 0.5 12C0.5 15.7275 0.5 17.5913 1.10896 19.0615C1.92092 21.0217 3.47831 22.5791 5.43853 23.391C6.9087 24 8.77247 24 12.5 24C16.2275 24 18.0913 24 19.5615 23.391C21.5217 22.5791 23.0791 21.0217 23.891 19.0615C24.5 17.5913 24.5 15.7275 24.5 12C24.5 8.27247 24.5 6.4087 23.891 4.93853C23.0791 2.97831 21.5217 1.42092 19.5615 0.608964C18.0913 0 16.2275 0 12.5 0C8.77247 0 6.9087 0 5.43853 0.608964C3.47831 1.42092 1.92092 2.97831 1.10896 4.93853ZM19.9776 10.5092L10.963 6.47606L10.1054 6.09234L7.27319 4.82521C7.04106 4.72137 6.76872 4.82534 6.66488 5.05743L5.6005 7.43643C5.49666 7.66856 5.60063 7.9409 5.83275 8.04474L6.20432 8.21092L5.55928 9.65261C5.45547 9.88473 5.55944 10.157 5.79153 10.2609L9.77197 12.0419V14.2654L6.01947 13.6269C6.01947 12.8685 5.491 12.2127 4.75 12.0514V19.2148C5.491 19.0536 6.01947 18.3978 6.01947 17.6394L7.47 17.3958L8.35468 17.2471L9.78914 17.006C10.4595 16.8934 10.951 16.2956 10.951 15.6159C11.4103 15.5287 11.7576 15.1252 11.7576 14.6405V12.9302L13.7167 13.8066L14.5743 14.1903L16.4152 15.0139C16.6474 15.1178 16.9197 15.0138 17.0235 14.7817L18.2757 11.9829L19.9499 11.3611C20.3363 11.2175 20.3538 10.6775 19.9776 10.5092Z" fill="#F97066"/>
</svg>
