<svg width="31" height="30" viewBox="0 0 31 30" fill="none" xmlns="http://www.w3.org/2000/svg">
<path fill-rule="evenodd" clip-rule="evenodd" d="M19.9876 5.69229C18.5869 5.01738 17.0519 4.66733 15.4971 4.66821C13.6283 4.66884 11.7944 5.17632 10.1912 6.13662C8.58792 7.09697 7.27516 8.47421 6.39272 10.1216C5.51029 11.7691 5.09122 13.625 5.18017 15.4918C5.26299 17.23 5.78336 18.9169 6.69023 20.3973L5.21298 24.3276C5.1189 24.5778 5.16658 24.8594 5.33783 25.0648C5.50908 25.2701 5.77747 25.3676 6.04058 25.32L11.1904 24.3888C12.5267 25.0026 13.9795 25.3245 15.4518 25.3318C17.0067 25.3395 18.5433 24.9961 19.947 24.3273C21.3507 23.6584 22.5855 22.6815 23.559 21.469C24.5325 20.2566 25.2198 18.8401 25.5698 17.325C25.9197 15.81 25.9231 14.2355 25.5799 12.719C25.2365 11.2024 24.5554 9.78293 23.5871 8.56628C22.6189 7.34964 21.3885 6.36722 19.9876 5.69229Z" fill="#D5D7DA"/>
</svg>
