<svg width="62" height="62" viewBox="0 0 62 62" fill="none" xmlns="http://www.w3.org/2000/svg">
<path d="M61.0248 30.9999C61.0248 33.5228 59.4409 35.621 57.9087 37.6497C56.9896 38.8678 56.1207 40.0188 55.6305 41.201C55.11 42.4565 54.8836 44.0022 54.666 45.4968C54.3041 47.9711 53.931 50.5308 52.2307 52.2303C50.5312 53.9298 47.9723 54.3029 45.498 54.6648C44.0033 54.8832 42.4577 55.1088 41.2022 55.6293C40.0192 56.1196 38.869 56.9884 37.6509 57.9084C35.6222 59.4397 33.524 61.0237 31.0011 61.0237C28.4774 61.0237 26.38 59.4397 24.3513 57.9084C23.1332 56.9884 21.9822 56.1196 20.8 55.6293C19.5445 55.1088 17.9988 54.8832 16.5042 54.6648C14.029 54.3029 11.4702 53.9298 9.77071 52.2303C8.07122 50.5307 7.69731 47.9711 7.3362 45.4968C7.11781 44.0021 6.89222 42.4565 6.37167 41.201C5.88142 40.0188 5.0125 38.8678 4.09261 37.6497C2.56132 35.621 0.976562 33.5228 0.976562 30.9999C0.976562 28.4769 2.56132 26.3788 4.09261 24.35C5.01256 23.132 5.88142 21.9809 6.37167 20.7987C6.89222 19.5432 7.11781 17.9976 7.3362 16.5029C7.69731 14.0286 8.07115 11.4689 9.77071 9.76944C11.4703 8.06995 14.0291 7.69688 16.5042 7.33494C17.9989 7.11655 19.5445 6.89096 20.8 6.3704C21.9822 5.88016 23.1332 5.01124 24.3513 4.09135C26.38 2.56006 28.4773 0.976074 31.0011 0.976074C33.5241 0.976074 35.6222 2.56 37.6509 4.09135C38.869 5.01124 40.0192 5.88016 41.2022 6.3704C42.4577 6.89096 44.0033 7.11655 45.498 7.33494C47.9723 7.69682 50.5312 8.06989 52.2307 9.76944C53.931 11.4689 54.3041 14.0286 54.666 16.5029C54.8836 17.9976 55.11 19.5432 55.6305 20.7987C56.1208 21.9809 56.9897 23.132 57.9087 24.35C59.4409 26.3788 61.0248 28.4769 61.0248 30.9999Z" fill="#37BE88"/>
<path d="M45.9316 26.4909L29.1537 43.2688C28.4563 43.9662 27.3255 43.9662 26.628 43.2688L16.0719 32.7127C15.3745 32.0153 15.3745 30.8845 16.0719 30.187L18.6416 27.6173C19.339 26.9199 20.4698 26.9199 21.1673 27.6173L27.8909 34.341L40.8362 21.3956C41.5337 20.6982 42.6644 20.6982 43.3619 21.3956L45.9316 23.9653C46.629 24.6628 46.629 25.7935 45.9316 26.4909Z" fill="white"/>
</svg>
