<svg width="134" height="111" viewBox="0 0 134 111" fill="none" xmlns="http://www.w3.org/2000/svg">
<g opacity="0.2" filter="url(#filter0_f_3278_2851)">
<ellipse cx="62.588" cy="21.3945" rx="62.588" ry="21.3945" transform="matrix(0.962144 0.272543 -0.28659 0.958053 12.9128 35.6641)" fill="#2FA274"/>
</g>
<path d="M61.8315 59.1602L61.8508 65.7554L38.2546 79.0123L38.2354 72.4171L61.8315 59.1602Z" fill="white"/>
<path d="M36.9763 71.8885L4.19702 53.3516L30.1931 38.7461L62.9727 57.2833L36.9763 71.8885Z" fill="#717680"/>
<path d="M37.0033 80.9428L31.0481 77.5752L29.4817 76.6904L27.6233 75.6395L26.0589 74.7547L24.1986 73.7014L22.6342 72.817L4.223 62.4075L4.19763 53.3516L22.6342 63.7775L24.1986 64.6622L26.0589 65.7155L27.6233 66.6L29.4817 67.6513L31.0481 68.5357L36.9759 71.8891L37.0033 80.9428Z" fill="#717680"/>
<path d="M62.9725 57.2852L62.9758 58.5152L61.8312 59.1584L38.235 72.4153L38.2543 79.0105L61.8505 65.7536L62.9951 65.1108L62.9988 66.3408L37.0025 80.946L36.9761 71.8903L62.9725 57.2852Z" fill="#535862"/>
<path d="M31.0482 68.5368V77.5763L29.4818 76.6915V67.6523L31.0482 68.5368Z" fill="#A4A7AE"/>
<path d="M27.6235 66.6032V75.6427L26.0591 74.7579V65.7188L27.6235 66.6032Z" fill="#A4A7AE"/>
<path d="M24.1987 64.6621V73.7013L22.6343 72.8169V63.7773L24.1987 64.6621Z" fill="#A4A7AE"/>
<path d="M65.4287 8.80859L56.3566 43.3235L27.6234 59.5725L36.6956 25.0575L65.4287 8.80859Z" fill="#A4A7AE"/>
<path d="M69.813 14.3902L42.4088 29.8877L36.6954 25.0561L64.0996 9.55859L69.813 14.3902Z" fill="white"/>
<path d="M42.0163 31.6181L32.9442 66.1334L25.1002 59.4993L34.1724 24.9844L42.0163 31.6181Z" fill="#D5D7DA"/>
<path d="M72.2084 14.5391L63.1362 49.054L32.9442 66.1281L42.0164 31.6129L72.2084 14.5391Z" fill="#A4A7AE"/>
<path d="M72.2085 14.5439L42.0165 31.6177L34.1725 24.984L64.3645 7.91016L65.4286 8.81006L36.6955 25.059L42.4088 29.8906L69.813 14.3931L71.1416 13.6417L72.2085 14.5439Z" fill="#D5D7DA"/>
<path d="M89.1382 1.15625L88.9728 57.8844L87.2633 58.8514L87.4284 2.1233L89.1382 1.15625Z" fill="#37BE88"/>
<path d="M96.2962 7.1038L61.0515 27.0353L52.1823 22.0523L87.427 2.12109L96.2962 7.1038Z" fill="white"/>
<path d="M60.8302 29.0283L60.6648 85.7564L48.4889 78.9156L48.654 22.1875L60.8302 29.0283Z" fill="#6FD5AC"/>
<path d="M56.7179 37.0402C56.7179 38.0399 55.8963 38.5777 53.9788 37.5004C53.1572 37.0386 52.2584 36.3589 51.6165 35.6486L52.3011 34.5841C52.8145 35.1641 53.4051 35.6292 53.9101 35.9129C54.3637 36.1677 54.6891 36.2009 54.6891 35.9007C54.6891 35.6509 54.4922 35.3902 53.9784 35.1019L53.1825 34.6546V33.4469L54.0644 33.0677L51.9243 31.8653V30.3828L56.3925 32.8933V34.1009L55.2797 34.5752C56.2214 35.3287 56.7179 36.2322 56.7179 37.0402Z" fill="#535862"/>
<path d="M56.7434 45.7941V47.3184L51.9413 44.6207V43.413L54.1071 42.6806C54.5181 42.5368 54.578 42.3456 54.578 42.1454C54.578 41.8624 54.3811 41.5767 53.9959 41.3604C53.6363 41.1586 53.294 41.1577 53.1144 41.4065L51.5906 39.8091C52.0273 39.2548 52.8915 39.191 54.1843 39.9171C55.6052 40.7153 56.6065 41.9944 56.6065 43.102C56.6065 43.6767 56.4522 44.1065 55.5792 44.3824L54.7231 44.6595L56.7434 45.7941Z" fill="#535862"/>
<path d="M55.6906 49.2979V55.1285L53.6706 53.9935V49.6454L52.6433 49.0684V47.5859L55.6906 49.2979Z" fill="#535862"/>
<path d="M99.6609 7.07031L99.4958 63.7984L60.6649 85.7575L60.8303 29.0294L99.6609 7.07031Z" fill="#37BE88"/>
<path d="M99.661 7.06734L60.8304 29.0264L48.6542 22.1856L87.485 0.226562L89.1384 1.15543L87.4286 2.12248L52.1824 22.053L61.0516 27.036L96.2964 7.10453L98.0062 6.13781L99.661 7.06734Z" fill="#95E0C2"/>
<path d="M104.183 22.43L73.7278 39.6526L66.0654 35.3476L96.5203 18.125L104.183 22.43Z" fill="white"/>
<path d="M73.5386 41.3712L73.5152 49.5404L73.5088 51.3241L73.5027 53.7226L73.4963 55.5043L73.4899 57.9049L73.4858 59.6885L73.4774 62.0874L73.473 63.8688L73.3948 90.3882L62.8733 84.478L62.9514 57.9585L62.9555 56.1748L62.9639 53.7763L62.9683 51.9946L62.9748 49.5938L62.9809 47.8124L62.9873 45.4115L62.9937 43.6302L63.017 35.4609L73.5386 41.3712Z" fill="#717680"/>
<path d="M107.09 22.3945L106.947 71.4122L73.3947 90.3862L73.5374 41.3688L107.09 22.3945Z" fill="#535862"/>
<path d="M80.8609 52.4731L79.8867 51.3129L78.7959 53.6334L75.6136 55.4213L78.3024 49.9558L75.6918 47.3943L79.0039 45.5336L80.017 46.6573L81.0821 44.3661L84.1605 42.6367L81.5499 47.9858L84.2254 50.5834L80.8609 52.4731Z" fill="#717680"/>
<path d="M91.2184 44.4844L87.9353 55.4777C87.0599 58.4289 85.7756 59.8555 84.083 60.8064C83.2076 61.2981 82.2007 61.5522 81.6608 61.364L82.7554 58.2077C83.0764 58.3061 83.5286 58.2485 83.9227 58.0274C84.3167 57.8062 84.5647 57.5356 84.7399 57.2078L81.3838 50.0099L84.7693 48.108L86.4183 51.9858L88.0963 46.2388L91.2184 44.4844Z" fill="#717680"/>
<path d="M88.8018 38.4351V39.8041L85.0672 41.9024V40.8179L86.7513 38.1211C87.0709 37.605 87.1173 37.3769 87.1173 37.1972C87.1173 36.9427 86.9644 36.8716 86.6647 37.0402C86.385 37.1972 86.1188 37.5188 85.9791 37.9118H84.7942C85.1335 37.003 85.8059 36.1314 86.8112 35.5666C87.9162 34.9458 88.6952 35.1515 88.6952 36.1462C88.6952 36.6623 88.5755 37.1936 87.8963 38.263L87.2306 39.3176L88.8018 38.4351Z" fill="#717680"/>
<path d="M107.09 22.3953L73.5372 41.3696L63.016 35.4587L96.5685 16.4844L97.9966 17.2865L66.0666 35.3432L73.7276 39.6491L104.183 22.4266L105.659 21.5915L107.09 22.3953Z" fill="#717680"/>
<path d="M73.515 49.5392L73.5086 51.3228L62.9871 45.4103L62.9935 43.6289L73.515 49.5392Z" fill="#535862"/>
<path d="M73.5023 53.7228L73.4959 55.5045L62.9744 49.5939L62.9805 47.8125L73.5023 53.7228Z" fill="#535862"/>
<path d="M73.4899 57.9025L73.4859 59.6861L62.964 53.7739L62.9684 51.9922L73.4899 57.9025Z" fill="#535862"/>
<path d="M73.4772 62.0844L73.4728 63.8658L62.9513 57.9556L62.9554 56.1719L73.4772 62.0844Z" fill="#535862"/>
<defs>
<filter id="filter0_f_3278_2851" x="3.76533" y="43.8508" width="126.469" height="58.7359" filterUnits="userSpaceOnUse" color-interpolation-filters="sRGB">
<feFlood flood-opacity="0" result="BackgroundImageFix"/>
<feBlend mode="normal" in="SourceGraphic" in2="BackgroundImageFix" result="shape"/>
<feGaussianBlur stdDeviation="1.35" result="effect1_foregroundBlur_3278_2851"/>
</filter>
</defs>
</svg>
