<svg width="60" height="60" viewBox="0 0 60 60" fill="none" xmlns="http://www.w3.org/2000/svg">
<g filter="url(#filter0_d_1299_23650)">
<path d="M14.1459 32.9495H19.3839V24.8245H14.1459C13.024 24.8245 12.1146 25.7339 12.1146 26.8558V30.9183C12.1146 32.0401 13.024 32.9495 14.1459 32.9495Z" fill="#36BFFA"/>
<path d="M19.3839 32.9495H31.5589H35.1136H38.5209C39.6427 32.9495 40.5521 32.0401 40.5521 30.9183V26.8558C40.5521 25.7339 39.6427 24.8245 38.5209 24.8245H19.3839V32.9495Z" fill="#84CAFF"/>
<path fill-rule="evenodd" clip-rule="evenodd" d="M17.3147 14.5686C17.5465 14.7186 17.6129 15.0281 17.4629 15.26L17.2448 15.5969C16.7703 16.3304 16.725 17.2619 17.1263 18.0378C17.6889 19.1254 17.6298 20.4303 16.9712 21.4626L16.5985 22.0468C16.4499 22.2796 16.1408 22.3479 15.908 22.1994C15.6752 22.0509 15.6069 21.7417 15.7554 21.509L16.1282 20.9248C16.595 20.193 16.6369 19.2682 16.2381 18.4972C15.6719 17.4025 15.7358 16.0884 16.4052 15.0537L16.6233 14.7167C16.7733 14.4849 17.0829 14.4185 17.3147 14.5686ZM21.2276 14.5686C21.4594 14.7186 21.5258 15.0281 21.3757 15.26L21.1577 15.5969C20.6832 16.3304 20.6379 17.2619 21.0393 18.0378C21.6019 19.1254 21.5428 20.4303 20.8842 21.4626L20.5115 22.0468C20.3629 22.2796 20.0538 22.3479 19.821 22.1994C19.5882 22.0509 19.5199 21.7417 19.6684 21.509L20.0412 20.9248C20.508 20.193 20.5499 19.2682 20.1511 18.4972C19.5848 17.4025 19.6487 16.0884 20.3181 15.0537L20.5362 14.7167C20.6862 14.4849 20.9958 14.4185 21.2276 14.5686Z" fill="#53B1FD"/>
<path fill-rule="evenodd" clip-rule="evenodd" d="M51.5717 26C51.5717 39.9387 40.2721 51.2383 26.3334 51.2383C12.3947 51.2383 1.09509 39.9387 1.09509 26C1.09509 12.0613 12.3947 0.761719 26.3334 0.761719C40.2721 0.761719 51.5717 12.0613 51.5717 26ZM23.0711 32.9495H19.3839H15.7554L10.4026 38.3401C7.75312 34.9273 6.17322 30.645 6.17322 26C6.17322 21.0967 7.49834 16.9061 11.1324 12.7392C15.4173 7.826 21.4138 5.83984 26.3334 5.83984C30.9783 5.83984 35.2607 7.41975 38.6734 10.0692L24.01 24.8245H31.2065L42.2642 13.6601C44.9136 17.0727 46.4935 21.355 46.4935 26C46.4935 37.1163 37.4497 46.1602 26.3334 46.1602C21.6884 46.1602 17.406 44.5803 13.9933 41.9308L23.0711 32.9495Z" fill="#53B1FD"/>
</g>
<defs>
<filter id="filter0_d_1299_23650" x="-6.90491" y="-6.23828" width="66.4766" height="66.4766" filterUnits="userSpaceOnUse" color-interpolation-filters="sRGB">
<feFlood flood-opacity="0" result="BackgroundImageFix"/>
<feColorMatrix in="SourceAlpha" type="matrix" values="0 0 0 0 0 0 0 0 0 0 0 0 0 0 0 0 0 0 127 0" result="hardAlpha"/>
<feOffset dy="1"/>
<feGaussianBlur stdDeviation="4"/>
<feComposite in2="hardAlpha" operator="out"/>
<feColorMatrix type="matrix" values="0 0 0 0 0.807843 0 0 0 0 0.819608 0 0 0 0 0.894118 0 0 0 0.15 0"/>
<feBlend mode="normal" in2="BackgroundImageFix" result="effect1_dropShadow_1299_23650"/>
<feBlend mode="normal" in="SourceGraphic" in2="effect1_dropShadow_1299_23650" result="shape"/>
</filter>
</defs>
</svg>
