<svg width="25" height="24" viewBox="0 0 25 24" fill="none" xmlns="http://www.w3.org/2000/svg">
<path d="M6.61501 10.85C6.54742 10.7824 6.43784 10.7824 6.37024 10.85C6.30265 10.9176 6.30265 11.0271 6.37024 11.0947L7.03463 11.7591L6.37025 12.4235C6.30266 12.4911 6.30266 12.6007 6.37025 12.6683C6.43785 12.7359 6.54743 12.7359 6.61502 12.6683L7.2794 12.0039L7.94377 12.6683C8.01136 12.7359 8.12095 12.7359 8.18854 12.6683C8.25613 12.6007 8.25613 12.4911 8.18854 12.4235L7.52416 11.7591L8.18855 11.0947C8.25614 11.0271 8.25614 10.9176 8.18855 10.85C8.12096 10.7824 8.01137 10.7824 7.94378 10.85L7.2794 11.5144L6.61501 10.85Z" fill="#32D583"/>
<path d="M6.61501 14.0062C6.54742 13.9386 6.43784 13.9386 6.37024 14.0062C6.30265 14.0738 6.30265 14.1833 6.37024 14.2509L7.03462 14.9153L6.37019 15.5797C6.3026 15.6473 6.3026 15.7569 6.37019 15.8245C6.43778 15.8921 6.54736 15.8921 6.61495 15.8245L7.27939 15.1601L7.94377 15.8245C8.01136 15.8921 8.12095 15.8921 8.18854 15.8245C8.25613 15.7569 8.25613 15.6473 8.18854 15.5797L7.52415 14.9153L8.18848 14.251C8.25607 14.1834 8.25607 14.0738 8.18848 14.0062C8.12089 13.9386 8.0113 13.9386 7.94371 14.0062L7.27939 14.6705L6.61501 14.0062Z" fill="#32D583"/>
<path d="M10.1263 14.7422C10.0307 14.7422 9.95318 14.8197 9.95318 14.9153C9.95318 15.0109 10.0307 15.0884 10.1263 15.0884H16.0996C16.1952 15.0884 16.2727 15.0109 16.2727 14.9153C16.2727 14.8197 16.1952 14.7422 16.0996 14.7422H10.1263Z" fill="#32D583"/>
<path d="M6.61501 17.1624C6.54742 17.0948 6.43784 17.0948 6.37024 17.1624C6.30265 17.23 6.30265 17.3395 6.37024 17.4071L7.03463 18.0715L6.37025 18.7359C6.30266 18.8035 6.30266 18.9131 6.37025 18.9807C6.43785 19.0483 6.54743 19.0483 6.61502 18.9807L7.2794 18.3163L7.94377 18.9807C8.01136 19.0483 8.12095 19.0483 8.18854 18.9807C8.25613 18.9131 8.25613 18.8035 8.18854 18.7359L7.52416 18.0715L8.18855 17.4071C8.25614 17.3395 8.25614 17.23 8.18855 17.1624C8.12096 17.0948 8.01137 17.0948 7.94378 17.1624L7.2794 17.8268L6.61501 17.1624Z" fill="#32D583"/>
<path d="M10.1263 17.8984C10.0307 17.8984 9.95318 17.9759 9.95318 18.0715C9.95318 18.1671 10.0307 18.2446 10.1263 18.2446H16.0996C16.1952 18.2446 16.2727 18.1671 16.2727 18.0715C16.2727 17.9759 16.1952 17.8984 16.0996 17.8984H10.1263Z" fill="#32D583"/>
<path fill-rule="evenodd" clip-rule="evenodd" d="M0.5 12C0.5 6.34315 0.5 3.51472 2.25736 1.75736C4.01472 0 6.84315 0 12.5 0C18.1569 0 20.9853 0 22.7426 1.75736C24.5 3.51472 24.5 6.34315 24.5 12C24.5 17.6569 24.5 20.4853 22.7426 22.2426C20.9853 24 18.1569 24 12.5 24C6.84315 24 4.01472 24 2.25736 22.2426C0.5 20.4853 0.5 17.6569 0.5 12ZM9.4355 3.3207L4.31876 8.43745L4.31885 18.6433C4.31885 19.7993 5.25591 20.7363 6.41184 20.7363H16.0658C17.2217 20.7363 18.1588 19.7993 18.1588 18.6433L18.1587 8.5992L20.2704 6.48745C20.8181 5.93979 20.8181 5.0523 20.2704 4.5046L19.4402 3.67435C18.8927 3.1269 18.005 3.12665 17.4573 3.67435L17.3571 3.77459C17.0007 3.4932 16.555 3.3207 16.0657 3.3207H9.4355ZM13.2865 7.84519L12.7868 8.34488C12.2629 8.86881 11.988 9.59191 12.032 10.3315L12.0333 10.3514C12.0376 10.4122 12.0451 10.4721 12.0557 10.531C12.0601 10.5556 12.0651 10.58 12.0705 10.6042C12.0733 10.6167 12.0763 10.6292 12.0794 10.6416L11.3928 11.3283C11.0548 11.6662 11.0548 12.2142 11.3928 12.5521C11.7307 12.8901 12.2787 12.8901 12.6166 12.5521L13.3032 11.8655L13.3064 11.8663L13.3087 11.8669C13.4071 11.8912 13.509 11.9068 13.6136 11.913C14.3603 11.957 15.0806 11.6773 15.5999 11.158L16.0996 10.6583L13.2865 7.84519Z" fill="#32D583"/>
</svg>
