<svg width="24" height="24" viewBox="0 0 24 24" fill="none" xmlns="http://www.w3.org/2000/svg">
<path d="M6.42505 18.4787C6.42868 18.1307 6.52046 17.7893 6.6918 17.4864C7.05287 16.8481 7.74633 16.4428 8.47951 16.4412C9.21269 16.4428 9.90615 16.8481 10.2672 17.4864C10.4386 17.7893 10.5303 18.1307 10.534 18.4787M13.47 18.4787C13.4736 18.1307 13.5654 17.7893 13.7367 17.4864C14.0978 16.8481 14.7912 16.4428 15.5244 16.4412C16.2576 16.4428 16.9511 16.8481 17.3121 17.4864C17.4835 17.7893 17.5753 18.1307 17.5789 18.4787M10.0078 11.7183C10.0113 11.3808 10.1003 11.0498 10.2664 10.7561C10.6165 10.1372 11.2889 9.74422 11.9998 9.74268C12.7107 9.74422 13.3831 10.1372 13.7332 10.7561C13.8993 11.0498 13.9883 11.3808 13.9918 11.7183M8.48048 15.5327C9.11084 15.5327 9.62184 15.0217 9.62184 14.3914C9.62184 13.761 9.11084 13.25 8.48048 13.25C7.85012 13.25 7.33911 13.761 7.33911 14.3914C7.33911 15.0217 7.85012 15.5327 8.48048 15.5327ZM15.5254 15.5327C16.1558 15.5327 16.6668 15.0217 16.6668 14.3914C16.6668 13.761 16.1558 13.25 15.5254 13.25C14.895 13.25 14.384 13.761 14.384 14.3914C14.384 15.0217 14.895 15.5327 15.5254 15.5327ZM11.999 9.04708C12.5874 9.04708 13.0644 8.57008 13.0644 7.98167C13.0644 7.39326 12.5874 6.91626 11.999 6.91626C11.4106 6.91626 10.9336 7.39326 10.9336 7.98167C10.9336 8.57008 11.4106 9.04708 11.999 9.04708ZM16.7818 5.54492H7.21823C6.82156 5.54492 6.5 5.86649 6.5 6.26315V11C6.5 11.3967 6.82156 11.7182 7.21823 11.7182H16.7818C17.1784 11.7182 17.5 11.3967 17.5 11V6.26315C17.5 5.86649 17.1784 5.54492 16.7818 5.54492Z" stroke="#A4A7AE" stroke-width="1.5" stroke-linecap="round" stroke-linejoin="round"/>
</svg>
