<svg xmlns="http://www.w3.org/2000/svg" fill="none" viewBox="8.72 7.47 31.06 31.06">
<g filter="url(#filter0_d_3355_23594)">
<path d="M17.5315 12.4492C17.4398 11.1865 16.4469 10.1518 15.1891 10.0081C14.785 9.96198 14.3974 10.0085 14.0425 10.1267C13.5585 9.29398 12.6357 8.74773 11.5903 8.80679C10.2442 8.88267 9.15627 9.98042 9.09033 11.327C9.0687 11.7708 9.15683 12.1915 9.32858 12.5659C8.93927 13.0814 8.71095 13.7252 8.71895 14.4227C8.73752 16.039 10.0543 17.3731 11.6701 17.4117C12.2773 17.4264 12.845 17.2617 13.3245 16.9674L14.2541 17.897C14.8315 18.4744 15.8188 18.0655 15.8188 17.2489V15.1342C16.8817 14.7334 17.6203 13.6713 17.5315 12.4492Z" fill="#AFB5D9"/>
<path d="M22.3683 8.49744C22.8598 7.87137 23.623 7.46875 24.4807 7.46875C25.3885 7.46875 26.1905 7.91981 26.6764 8.60956C27.6968 8.76588 28.4785 9.64744 28.4785 10.7116C28.4785 11.8861 27.5263 12.8383 26.3518 12.8383C26.1407 12.8383 25.9368 12.807 25.7443 12.7497L25.044 14.4404C24.8537 14.8999 24.2027 14.8999 24.0123 14.4404L23.2653 12.6369C23.0637 12.7003 22.8493 12.7346 22.6268 12.7346C21.4523 12.7346 20.5002 11.7824 20.5002 10.6079C20.5002 9.52094 21.3158 8.62506 22.3683 8.49744Z" fill="#AFB5D9"/>
<path d="M32.8573 10.1011C33.0035 10.0573 33.1551 10.0259 33.3107 10.0081C33.7148 9.96194 34.1023 10.0085 34.4573 10.1266C34.9413 9.29394 35.864 8.74775 36.9093 8.80675C38.2555 8.88263 39.3434 9.98038 39.4093 11.327C39.431 11.7708 39.3429 12.1915 39.1711 12.5659C39.5604 13.0814 39.7887 13.7251 39.7807 14.4227C39.7622 16.0389 38.4454 17.3731 36.8296 17.4118C36.2224 17.4263 35.6548 17.2616 35.1753 16.9673L34.2456 17.897C33.6682 18.4744 32.681 18.0655 32.681 17.2489V15.1341C31.618 14.7334 30.8794 13.6713 30.9682 12.4491C30.9905 12.1409 31.0667 11.8461 31.1872 11.5747C31.1872 11.5747 31.5546 10.8683 31.9158 10.5784C32.2373 10.3204 32.8573 10.1011 32.8573 10.1011Z" fill="#AFB5D9"/>
<path d="M13.6358 24.6357C13.4764 25.0874 13.3476 25.5526 13.2536 26.0291C16.5769 26.019 21.4647 23.8318 24.4822 20.8526C27.3617 23.6956 31.9511 26 35.2459 26.0291C35.2418 26.0087 35.2377 25.9882 35.2336 25.9678C35.1407 25.5127 35.0166 25.068 34.864 24.6357C33.3834 20.4421 29.1909 17.4186 24.2498 17.4186C19.3086 17.4186 15.1164 20.4421 13.6358 24.6357Z" fill="#3E4784"/>
<path d="M13.5813 31.3119C14.0875 32.7966 14.982 34.1443 16.3386 35.4378C16.9733 36.0429 17.3747 36.3426 18.1192 36.806C20.2307 38.1202 21.9862 38.5312 24.2497 38.5312C29.1909 38.5312 33.3834 35.5076 34.864 31.3141C35.1609 30.4731 35.349 29.585 35.412 28.6648C35.4233 28.4992 35.4306 28.3326 35.4337 28.1651C35.4349 28.1018 35.4355 28.0384 35.4355 27.9749C35.4355 27.8638 35.4337 27.7531 35.4301 27.6429C35.4121 27.0933 35.3496 26.5544 35.2459 26.0291C31.9511 26 27.3617 23.6956 24.4822 20.8526C21.4647 23.8318 16.5769 26.019 13.2536 26.0291C13.2485 26.0548 13.2435 26.0805 13.2387 26.1063C13.1439 26.6071 13.0865 27.1202 13.0694 27.6429C13.0658 27.7531 13.0639 27.8638 13.0639 27.9749C13.0639 29.1419 13.2653 30.2646 13.6358 31.3141C13.6176 31.3135 13.5994 31.3127 13.5813 31.3119Z" fill="#D5D9EB"/>
<path fill-rule="evenodd" clip-rule="evenodd" d="M17.3968 26.8551C17.4683 26.5883 17.7425 26.4301 18.0092 26.5015L20.0614 27.0515C20.3281 27.123 20.4864 27.3971 20.4149 27.6639C20.3434 27.9306 20.0693 28.0889 19.8025 28.0174L19.4208 27.9151C19.4226 27.9325 19.4236 27.9501 19.4236 27.9679V28.852C19.4236 29.1281 19.1997 29.352 18.9236 29.352C18.6474 29.352 18.4236 29.1281 18.4236 28.852V27.9679C18.4236 27.8579 18.4591 27.7561 18.5194 27.6735L17.7503 27.4675C17.4836 27.396 17.3253 27.1218 17.3968 26.8551ZM31.1019 26.8551C31.1733 27.1218 31.015 27.396 30.7483 27.4675L29.9795 27.6735C30.0398 27.7561 30.0754 27.8578 30.0754 27.9679V28.852C30.0754 29.1281 29.8515 29.352 29.5754 29.352C29.2992 29.352 29.0754 29.1281 29.0754 28.852V27.9679C29.0754 27.95 29.0763 27.9324 29.0781 27.915L28.6961 28.0174C28.4293 28.0889 28.1552 27.9306 28.0837 27.6639C28.0122 27.3971 28.1705 27.123 28.4372 27.0515L30.4895 26.5015C30.7562 26.4301 31.0304 26.5884 31.1019 26.8551ZM24.2494 29.391C23.8398 29.391 23.4729 29.5714 23.2223 29.859C23.0409 30.0672 22.7251 30.0889 22.5169 29.9075C22.3087 29.7261 22.287 29.4102 22.4684 29.202C22.9005 28.7062 23.5382 28.391 24.2494 28.391C24.9607 28.391 25.5983 28.7062 26.0304 29.202C26.2119 29.4102 26.1902 29.726 25.982 29.9075C25.7738 30.0889 25.458 30.0672 25.2766 29.8591C25.0258 29.5714 24.659 29.391 24.2494 29.391Z" fill="#4E5BA6"/>
<path fill-rule="evenodd" clip-rule="evenodd" d="M19.6414 13.5352C19.9176 13.5352 20.1414 13.759 20.1414 14.0352V15.2064C20.1414 15.4825 19.9176 15.7064 19.6414 15.7064C19.3653 15.7064 19.1414 15.4825 19.1414 15.2064V14.0352C19.1414 13.759 19.3653 13.5352 19.6414 13.5352ZM28.8764 14.707C29.1525 14.707 29.3764 14.9309 29.3764 15.207V15.9363C29.3764 16.2125 29.1525 16.4363 28.8764 16.4363C28.6002 16.4363 28.3764 16.2125 28.3764 15.9363V15.207C28.3764 14.9309 28.6002 14.707 28.8764 14.707ZM10.3344 19.2633C10.5297 19.068 10.8463 19.068 11.0415 19.2633L12.885 21.1068C13.0803 21.302 13.0803 21.6186 12.885 21.8139C12.6898 22.0091 12.3732 22.0091 12.1779 21.8139L10.3344 19.9704C10.1392 19.7751 10.1392 19.4585 10.3344 19.2633ZM38.1652 19.2633C38.3604 19.4585 38.3604 19.7751 38.1652 19.9704L36.3217 21.8139C36.1264 22.0091 35.8098 22.0091 35.6146 21.8139C35.4193 21.6186 35.4193 21.302 35.6146 21.1068L37.4581 19.2633C37.6533 19.068 37.9699 19.068 38.1652 19.2633Z" fill="#717BBC"/>
<path fill-rule="evenodd" clip-rule="evenodd" d="M13.0639 27.9749C13.0639 29.1419 13.2653 30.2646 13.6358 31.3141C13.6176 31.3135 13.5994 31.3127 13.5813 31.3119C11.4537 31.2155 9.76415 29.7587 9.76415 27.9749C9.76415 26.176 11.4826 24.7095 13.6358 24.6357C13.4764 25.0874 13.3476 25.5526 13.2536 26.0291C13.2485 26.0548 13.2435 26.0805 13.2387 26.1063C13.1439 26.6071 13.0865 27.1202 13.0694 27.6429C12.6876 27.5321 12.3163 27.4805 11.9959 27.47C11.7199 27.4609 11.4888 27.6773 11.4798 27.9533C11.4707 28.2293 11.6871 28.4604 11.9631 28.4695C12.2382 28.4785 12.5714 28.5284 12.9087 28.6398C12.9665 28.659 13.0253 28.6669 13.0828 28.6649C13.0702 28.4384 13.0639 28.2085 13.0639 27.9749Z" fill="#AFB5D9"/>
<path d="M11.9959 27.47C11.7199 27.4609 11.4888 27.6773 11.4798 27.9533C11.4707 28.2293 11.6871 28.4604 11.9631 28.4695C12.2382 28.4785 12.5714 28.5284 12.9087 28.6398C12.9665 28.659 13.0253 28.6669 13.0828 28.6649C13.0702 28.4384 13.0639 28.2085 13.0639 27.9749C13.0639 27.8638 13.0658 27.7531 13.0694 27.6429C12.6876 27.5321 12.3163 27.4805 11.9959 27.47Z" fill="#717BBC"/>
<path fill-rule="evenodd" clip-rule="evenodd" d="M35.2336 25.9678C35.1407 25.5127 35.0166 25.068 34.864 24.6357C37.0172 24.7095 38.7357 26.176 38.7357 27.9749C38.7357 29.7739 37.0172 31.2403 34.864 31.3141C35.1609 30.4731 35.349 29.585 35.412 28.6648C35.4709 28.6674 35.5314 28.6595 35.5907 28.6398C35.9279 28.5284 36.2612 28.4785 36.5363 28.4695C36.8123 28.4604 37.0287 28.2293 37.0196 27.9533C37.0105 27.6773 36.7794 27.4609 36.5034 27.47C36.183 27.4805 35.8118 27.5321 35.4301 27.6429C35.4121 27.0933 35.3496 26.5544 35.2459 26.0291L35.2336 25.9678Z" fill="#AFB5D9"/>
<path d="M36.5363 28.4695C36.8123 28.4604 37.0287 28.2293 37.0196 27.9533C37.0105 27.6773 36.7794 27.4609 36.5034 27.47C36.183 27.4805 35.8118 27.5321 35.4301 27.6429C35.4337 27.7531 35.4355 27.8638 35.4355 27.9749C35.4355 28.0384 35.4349 28.1018 35.4337 28.1651C35.4306 28.3326 35.4233 28.4992 35.412 28.6648C35.4709 28.6674 35.5314 28.6595 35.5907 28.6398C35.9279 28.5284 36.2612 28.4785 36.5363 28.4695Z" fill="#717BBC"/>
</g>
<defs>
<filter id="filter0_d_3355_23594" x="0.71875" y="0.46875" width="47.0621" height="47.0625" filterUnits="userSpaceOnUse" color-interpolation-filters="sRGB">
<feFlood flood-opacity="0" result="BackgroundImageFix"/>
<feColorMatrix in="SourceAlpha" type="matrix" values="0 0 0 0 0 0 0 0 0 0 0 0 0 0 0 0 0 0 127 0" result="hardAlpha"/>
<feOffset dy="1"/>
<feGaussianBlur stdDeviation="4"/>
<feComposite in2="hardAlpha" operator="out"/>
<feColorMatrix type="matrix" values="0 0 0 0 0.81125 0 0 0 0 0.813125 0 0 0 0 0.825 0 0 0 0.15 0"/>
<feBlend mode="normal" in2="BackgroundImageFix" result="effect1_dropShadow_3355_23594"/>
<feBlend mode="normal" in="SourceGraphic" in2="effect1_dropShadow_3355_23594" result="shape"/>
</filter>
</defs>
</svg>