<svg width="24" height="24" viewBox="0 0 24 24" fill="none" xmlns="http://www.w3.org/2000/svg">
<path d="M8.48954 13.9696C8.3395 13.9294 8.18528 14.0184 8.14508 14.1685C8.10487 14.3185 8.1939 14.4727 8.34394 14.5129L8.77652 14.6289C8.74263 14.6753 8.72264 14.7325 8.72264 14.7944V15.2917C8.72264 15.4471 8.84856 15.573 9.00389 15.573C9.15922 15.573 9.28514 15.4471 9.28514 15.2917V14.7944C9.28514 14.7844 9.28461 14.7745 9.28359 14.7647L9.4983 14.8223C9.64833 14.8625 9.80256 14.7735 9.84276 14.6234C9.88297 14.4734 9.79393 14.3192 9.6439 14.279L8.48954 13.9696Z" fill="#F97066"/>
<path d="M15.6553 14.5129C15.8053 14.4727 15.8944 14.3185 15.8542 14.1685C15.814 14.0184 15.6597 13.9294 15.5097 13.9696L14.3553 14.279C14.2053 14.3192 14.1162 14.4734 14.1564 14.6234C14.1967 14.7735 14.3509 14.8625 14.5009 14.8223L14.7158 14.7647C14.7148 14.7745 14.7143 14.7844 14.7143 14.7944V15.2917C14.7143 15.4471 14.8402 15.573 14.9955 15.573C15.1508 15.573 15.2768 15.4471 15.2768 15.2917V14.7944C15.2768 14.7325 15.2568 14.6753 15.2229 14.6288L15.6553 14.5129Z" fill="#F97066"/>
<path d="M11.4219 15.8582C11.5629 15.6964 11.7693 15.5949 11.9997 15.5949C12.2301 15.5949 12.4364 15.6964 12.5774 15.8582C12.6795 15.9753 12.8572 15.9875 12.9743 15.8854C13.0914 15.7834 13.1035 15.6057 13.0015 15.4886C12.7584 15.2097 12.3998 15.0324 11.9997 15.0324C11.5996 15.0324 11.2409 15.2097 10.9979 15.4887C10.8958 15.6058 10.908 15.7834 11.0251 15.8855C11.1422 15.9875 11.3199 15.9753 11.4219 15.8582Z" fill="#F97066"/>
<path fill-rule="evenodd" clip-rule="evenodd" d="M1.75736 1.75736C0 3.51472 0 6.34315 0 12C0 17.6569 0 20.4853 1.75736 22.2426C3.51472 24 6.34315 24 12 24C17.6569 24 20.4853 24 22.2426 22.2426C24 20.4853 24 17.6569 24 12C24 6.34315 24 3.51472 22.2426 1.75736C20.4853 0 17.6569 0 12 0C6.34315 0 3.51472 0 1.75736 1.75736ZM12.1297 3.26367C11.6473 3.26367 11.218 3.49015 10.9416 3.84231C10.3495 3.9141 9.89071 4.41803 9.89071 5.02946C9.89071 5.69012 10.4263 6.22569 11.087 6.22569C11.2121 6.22569 11.3327 6.20639 11.4461 6.17074L11.8663 7.18525C11.9734 7.44372 12.3396 7.44372 12.4466 7.18525L12.8405 6.2342C12.9488 6.26644 13.0635 6.28402 13.1823 6.28402C13.8429 6.28402 14.3785 5.74845 14.3785 5.08779C14.3785 4.48918 13.9388 3.9933 13.3649 3.90538C13.0915 3.51739 12.6404 3.26367 12.1297 3.26367ZM17.0966 4.69207C17.0091 4.70206 16.9239 4.71971 16.8416 4.74435C16.8416 4.74435 16.4929 4.86774 16.312 5.01286C16.1088 5.17591 15.9022 5.57326 15.9022 5.57326C15.8344 5.72595 15.7916 5.89174 15.779 6.06513C15.729 6.75258 16.1445 7.35003 16.7424 7.57545V8.76499C16.7424 9.22435 17.2977 9.45437 17.6225 9.12956L18.1455 8.60662C18.4152 8.77217 18.7345 8.8648 19.076 8.85661C19.9849 8.83489 20.7256 8.0844 20.736 7.17526C20.7405 6.78289 20.6121 6.42081 20.3931 6.13084C20.4898 5.92022 20.5393 5.68355 20.5271 5.43394C20.49 4.67646 19.8781 4.05898 19.1209 4.0163C18.5329 3.98311 18.0138 4.29034 17.7416 4.75873C17.5419 4.69228 17.3239 4.66609 17.0966 4.69207ZM9.68893 6.95728C9.68893 6.80195 9.56301 6.67603 9.40768 6.67603C9.25235 6.67603 9.12643 6.80195 9.12643 6.95728V7.6161C9.12643 7.77143 9.25235 7.89735 9.40768 7.89735C9.56301 7.89735 9.68893 7.77143 9.68893 7.6161V6.95728ZM14.8836 7.61644C14.8836 7.46111 14.7577 7.33519 14.6023 7.33519C14.447 7.33519 14.3211 7.46111 14.3211 7.61644V8.02668C14.3211 8.18201 14.447 8.30793 14.6023 8.30793C14.7577 8.30793 14.8836 8.18201 14.8836 8.02668V7.61644ZM4.57024 9.89808C4.46041 9.78825 4.28233 9.78825 4.17249 9.89808C4.06266 10.0079 4.06266 10.186 4.17249 10.2958L5.20946 11.3328C5.3193 11.4426 5.49738 11.4426 5.60721 11.3328C5.71705 11.223 5.71705 11.0449 5.60721 10.9351L4.57024 9.89808ZM19.8273 10.2958C19.9371 10.186 19.9371 10.0079 19.8273 9.89808C19.7175 9.78825 19.5394 9.78825 19.4295 9.89808L18.3926 10.9351C18.2827 11.0449 18.2827 11.223 18.3926 11.3328C18.5024 11.4426 18.6805 11.4426 18.7903 11.3328L19.8273 10.2958ZM6.02953 12.9201C5.93983 13.1741 5.86743 13.4359 5.8145 13.7039C7.6839 13.6982 10.4333 12.4679 12.1306 10.7921C13.7504 12.3913 16.3319 13.6875 18.1852 13.7039L18.1783 13.6694C18.1674 13.616 18.1557 13.5629 18.1433 13.5101L18.1343 13.4721C18.0889 13.2846 18.034 13.1004 17.9704 12.9201C19.1816 12.9616 20.1482 13.7865 20.1482 14.7984C20.1482 15.8103 19.1816 16.6352 17.9704 16.6767C17.3458 18.4458 15.8631 19.8448 13.9882 20.4337C13.3632 20.63 12.6947 20.7363 11.9999 20.7363C10.7266 20.7363 9.73914 20.5051 8.55142 19.7659C8.13264 19.5052 7.90686 19.3366 7.54985 18.9963C6.78675 18.2687 6.28357 17.5106 5.99885 16.6754C4.80208 16.6212 3.85171 15.8018 3.85171 14.7984C3.85171 13.7865 4.81837 12.9616 6.02953 12.9201ZM10.6611 8.99515L10.6402 8.99947L10.6706 8.99322L10.6611 8.99515ZM8.22085 6.06516C8.16928 5.35489 7.61075 4.77288 6.90323 4.69206C6.67591 4.66611 6.45791 4.69227 6.25826 4.75875C5.98601 4.29036 5.46696 3.9831 4.8789 4.01632C4.12174 4.059 3.50978 4.67648 3.47269 5.43396C3.46052 5.68357 3.51009 5.92024 3.6067 6.13083C3.38771 6.4208 3.25929 6.78291 3.26379 7.17529C3.27423 8.08442 4.01494 8.83487 4.92383 8.8566C5.26537 8.86482 5.58466 8.77219 5.85438 8.60664L6.37733 9.12959C6.7021 9.45436 7.25743 9.22433 7.25743 8.76502V7.57547C7.85533 7.35005 8.27077 6.7526 8.22085 6.06516Z" fill="#F97066"/>
</svg>
