<svg width="62" height="62" viewBox="0 0 62 62" fill="none" xmlns="http://www.w3.org/2000/svg">
<path d="M61.0243 31.0004C61.0243 33.5233 59.4404 35.6214 57.9083 37.6502C56.9891 38.8682 56.1202 40.0193 55.63 41.2015C55.1095 42.457 54.8831 44.0027 54.6655 45.4973C54.3036 47.9716 53.9306 50.5313 52.2302 52.2308C50.5307 53.9303 47.9719 54.3033 45.4975 54.6653C44.0028 54.8837 42.4572 55.1093 41.2017 55.6298C40.0187 56.1201 38.8685 56.9889 37.6504 57.9089C35.6217 59.4402 33.5236 61.0241 31.0006 61.0241C28.4769 61.0241 26.3796 59.4402 24.3508 57.9089C23.1328 56.9889 21.9817 56.1201 20.7995 55.6298C19.544 55.1093 17.9983 54.8837 16.5037 54.6653C14.0285 54.3034 11.4697 53.9303 9.77022 52.2308C8.07073 50.5312 7.69682 47.9716 7.33571 45.4973C7.11733 44.0026 6.89173 42.457 6.37118 41.2015C5.88093 40.0193 5.01201 38.8682 4.09213 37.6502C2.56084 35.6214 0.976074 33.5233 0.976074 31.0004C0.976074 28.4774 2.56084 26.3793 4.09213 24.3505C5.01207 23.1325 5.88093 21.9814 6.37118 20.7992C6.89173 19.5437 7.11733 17.9981 7.33571 16.5034C7.69682 14.0291 8.07066 11.4694 9.77022 9.76993C11.4698 8.07044 14.0286 7.69737 16.5037 7.33543C17.9984 7.11704 19.544 6.89144 20.7995 6.37089C21.9817 5.88064 23.1328 5.01172 24.3508 4.09184C26.3796 2.56055 28.4768 0.976562 31.0006 0.976562C33.5236 0.976562 35.6217 2.56049 37.6504 4.09184C38.8685 5.01172 40.0187 5.88064 41.2017 6.37089C42.4572 6.89144 44.0028 7.11704 45.4975 7.33543C47.9719 7.6973 50.5307 8.07038 52.2302 9.76993C53.9306 11.4694 54.3036 14.0291 54.6655 16.5034C54.8831 17.9981 55.1096 19.5437 55.63 20.7992C56.1203 21.9814 56.9892 23.1325 57.9083 24.3505C59.4404 26.3793 61.0243 28.4774 61.0243 31.0004Z" fill="#37BE88"/>
<path d="M45.9301 26.4934L29.1522 43.2712C28.4548 43.9687 27.324 43.9687 26.6266 43.2712L16.0704 32.7151C15.373 32.0177 15.373 30.8869 16.0704 30.1895L18.6401 27.6198C19.3376 26.9223 20.4683 26.9223 21.1658 27.6198L27.8895 34.3434L40.8348 21.3981C41.5322 20.7006 42.663 20.7006 43.3605 21.3981L45.9302 23.9678C46.6275 24.6652 46.6275 25.796 45.9301 26.4934Z" fill="white"/>
</svg>
