<svg width="31" height="30" viewBox="0 0 31 30" fill="none" xmlns="http://www.w3.org/2000/svg">
<path fill-rule="evenodd" clip-rule="evenodd" d="M12.3851 4.2646C8.0364 5.52422 4.77986 9.35451 4.36862 14.0023H9.47771C9.77837 10.5719 10.7731 7.25591 12.3851 4.2646ZM9.47771 15.9979H4.36862C4.77986 20.6458 8.0364 24.4761 12.3851 25.7357C10.773 22.7444 9.77837 19.4284 9.47771 15.9979ZM14.9448 26.162C13.0194 23.1191 11.8277 19.6329 11.4816 15.9979H19.5185C19.1725 19.6329 17.9807 23.1191 16.0553 26.162C15.8714 26.1709 15.6863 26.1755 15.5001 26.1755C15.3139 26.1755 15.1288 26.1709 14.9448 26.162ZM18.6151 25.7357C22.9638 24.4761 26.2203 20.6458 26.6316 15.9979H21.5224C21.2217 19.4284 20.2271 22.7444 18.6151 25.7357ZM21.5224 14.0023H26.6316C26.2203 9.35449 22.9638 5.52418 18.6151 4.26459C20.2271 7.25589 21.2217 10.5719 21.5224 14.0023ZM14.9448 3.83826C15.1288 3.82926 15.3139 3.82471 15.5001 3.82471C15.6863 3.82471 15.8714 3.82926 16.0553 3.83826C17.9807 6.88112 19.1725 10.3674 19.5185 14.0023H11.4816C11.8277 10.3674 13.0194 6.88112 14.9448 3.83826Z" fill="#D5D7DA"/>
</svg>
