<svg width="33" height="30" viewBox="0 0 33 30" fill="none" xmlns="http://www.w3.org/2000/svg">
<path d="M1.86035 23.2988L2.57004 29.8337H30.4298L31.1395 23.2988H1.86035Z" fill="#AFB5D9"/>
<path d="M18.8308 7.32812V16.0408C18.8308 17.6263 20.2801 18.9117 22.0677 18.9117H27.1513C28.939 18.9117 30.3882 17.6263 30.3882 16.0408V7.32812H18.8308Z" fill="#717BBC"/>
<path d="M19.8357 9.65042H18.8378C18.1731 9.65042 17.6343 9.17254 17.6343 8.58302C17.6343 7.9935 18.1731 7.51562 18.8378 7.51562H19.8357V9.65042Z" fill="#D5D9EB"/>
<path d="M29.6034 9.65042H30.3813C31.046 9.65042 31.5848 9.17254 31.5848 8.58302C31.5848 7.9935 31.046 7.51562 30.3813 7.51562H29.6034V9.65042Z" fill="#D5D9EB"/>
<path d="M29.806 21.0734H19.4131V19.8275C19.4131 17.2821 21.7396 15.2188 24.6095 15.2188C27.4795 15.2188 29.806 17.2822 29.806 19.8275V21.0734H29.806Z" fill="#3E4784"/>
<path d="M24.6096 16.6299C23.9201 16.6299 23.3612 16.1342 23.3612 15.5227V12.9707H25.858V15.5227C25.8579 16.1342 25.299 16.6299 24.6096 16.6299Z" fill="#D5D9EB"/>
<path d="M24.6095 14.3764C21.7298 14.3764 19.3954 12.306 19.3954 9.75197V5.981L21.7201 4.74032L24.6095 4.72852L29.8236 5.98105V9.75203C29.8236 12.306 27.4891 14.3764 24.6095 14.3764Z" fill="#EAECF5"/>
<path d="M29.9239 3.89748C28.4542 0.818517 23.9127 -0.203147 20.9899 1.89722C20.3274 2.37327 19.7141 3.01994 19.2952 3.89748C18.9761 4.56588 18.8308 5.28948 18.8308 6.01531V7.51524C18.8308 7.51524 19.436 7.5153 19.4611 7.51546C20.5059 7.52145 21.5481 7.36192 22.5161 7.01292C23.2468 6.74945 23.962 6.37761 24.6096 5.83604C25.2571 6.37756 25.9723 6.74945 26.7031 7.01292C27.6711 7.36192 28.7132 7.52145 29.7581 7.51546C29.7831 7.5153 30.3883 7.51524 30.3883 7.51524V6.01531C30.3882 5.28948 30.2429 4.56588 29.9239 3.89748Z" fill="#717BBC"/>
<path d="M22.5084 9.76059C22.2423 9.76059 22.0266 9.56935 22.0266 9.33333V8.6636C22.0266 8.42762 22.2423 8.23633 22.5084 8.23633C22.7744 8.23633 22.99 8.42757 22.99 8.6636V9.33333C22.9901 9.56935 22.7744 9.76059 22.5084 9.76059Z" fill="#717BBC"/>
<path d="M26.7106 9.76059C26.4445 9.76059 26.2289 9.56935 26.2289 9.33333V8.6636C26.2289 8.42762 26.4446 8.23633 26.7106 8.23633C26.9766 8.23633 27.1923 8.42757 27.1923 8.6636V9.33333C27.1923 9.56935 26.9766 9.76059 26.7106 9.76059Z" fill="#717BBC"/>
<path d="M13.8479 21.0733H3.18127V19.7946C3.18127 17.1822 5.56909 15.0645 8.51459 15.0645C11.4601 15.0645 13.8479 17.1822 13.8479 19.7946V21.0733Z" fill="#3E4784"/>
<path d="M8.51465 16.5134C7.80702 16.5134 7.2334 16.0047 7.2334 15.3771V12.7578H9.7959V15.3771C9.7959 16.0047 9.22227 16.5134 8.51465 16.5134Z" fill="#D5D9EB"/>
<path d="M8.51491 14.0487C5.74297 14.0487 3.49585 12.0557 3.49585 9.59727V5.22852H8.51491H13.534V9.59727C13.534 12.0558 11.2868 14.0487 8.51491 14.0487Z" fill="#EAECF5"/>
<path d="M1.78009 6.91356V8.7008H3.48684V6.30869C3.48784 6.03175 3.83815 5.86169 4.10528 6.00509L4.11228 6.00886C4.83028 6.39256 5.72384 6.54084 6.57065 6.62454C7.74047 6.74017 8.99003 6.74638 10.1648 6.66257C10.7367 6.62177 11.3112 6.5512 11.8614 6.40309C12.1313 6.33042 12.3959 6.24023 12.6461 6.1236C12.7419 6.07881 12.833 6.03098 12.9196 5.98015C13.1824 5.82599 13.5418 5.99484 13.5429 6.27432V8.7008H15.2497V6.91356V6.72903C15.2497 3.43011 12.2344 0.755859 8.51484 0.755859C4.79528 0.755859 1.78003 3.43011 1.78003 6.72903L1.78009 6.91356Z" fill="#4E5BA6"/>
<path d="M3.56735 9.57241H2.9056C2.11685 9.57241 1.47742 9.00529 1.47742 8.30574C1.47742 7.60619 2.11685 7.03906 2.9056 7.03906H3.56735V9.57241Z" fill="#D5D9EB"/>
<path d="M13.4714 9.57241H14.1332C14.9219 9.57241 15.5614 9.00529 15.5614 8.30574C15.5614 7.60619 14.9219 7.03906 14.1332 7.03906H13.4714V9.57241Z" fill="#D5D9EB"/>
<path d="M6.49579 9.77948C6.22973 9.77948 6.01404 9.58824 6.01404 9.35222V8.52883C6.01404 8.29286 6.22973 8.10156 6.49579 8.10156C6.76185 8.10156 6.97754 8.2928 6.97754 8.52883V9.35227C6.97754 9.58824 6.76185 9.77948 6.49579 9.77948Z" fill="#3E4784"/>
<path d="M10.534 9.77948C10.2679 9.77948 10.0522 9.58824 10.0522 9.35222V8.52883C10.0522 8.29286 10.2679 8.10156 10.534 8.10156C10.8001 8.10156 11.0157 8.2928 11.0157 8.52883V9.35227C11.0157 9.58824 10.8001 9.77948 10.534 9.77948Z" fill="#3E4784"/>
<path d="M31.9359 23.426H1.06381C0.752438 23.426 0.5 23.1736 0.5 22.8622V21.4447C0.5 21.1333 0.752438 20.8809 1.06381 20.8809H31.9359C32.2472 20.8809 32.4997 21.1333 32.4997 21.4447V22.8622C32.4998 23.1736 32.2473 23.426 31.9359 23.426Z" fill="#717BBC"/>
</svg>
