<svg width="45" height="42" viewBox="0 0 45 42" fill="none" xmlns="http://www.w3.org/2000/svg">
<g filter="url(#filter0_d_3232_14009)">
<path fill-rule="evenodd" clip-rule="evenodd" d="M21.6833 35.3668C21.911 35.4933 22.207 35.5558 22.5 35.5543V34.1501V9.15013V8.82514C22.1791 8.82514 21.8583 8.75014 21.6166 8.60014L21.1999 8.3502C18.2333 6.5002 12.9333 4.73349 9.43328 4.45015C7.44995 4.28349 5.83333 5.78347 5.83333 7.7668V27.9002C5.83333 29.5002 7.13331 31.0001 8.73331 31.2001L9.21671 31.2669C12.8334 31.7502 18.4166 33.5835 21.6166 35.3335L21.6833 35.3668Z" fill="#33C5AB"/>
<path d="M39.1667 27.9002V7.78349C39.1667 5.78349 37.5334 4.30017 35.55 4.46684H35.45C35.05 4.50017 34.6167 4.55023 34.1667 4.63356V13.3335L30.8333 11.1168L27.5 13.3335V6.53349C26.05 7.11682 24.7167 7.76683 23.6667 8.41683L23.3834 8.60014C23.1417 8.75014 22.8209 8.82514 22.5 8.82514V9.15013V34.1501V35.5543C22.786 35.5528 23.0692 35.4903 23.2833 35.3668C26.4833 33.6001 32.0833 31.7502 35.7167 31.2669L36.2667 31.2001C37.8667 31.0001 39.1667 29.5002 39.1667 27.9002Z" fill="#A9E3D4"/>
</g>
<path d="M34.1667 4.6333V13.3333L30.8333 11.1166L27.5 13.3333V6.53322C29.6833 5.66656 32.1167 4.96663 34.1667 4.6333Z" fill="#FF6C64"/>
<defs>
<filter id="filter0_d_3232_14009" x="0.833328" y="0.4375" width="43.3333" height="41.1167" filterUnits="userSpaceOnUse" color-interpolation-filters="sRGB">
<feFlood flood-opacity="0" result="BackgroundImageFix"/>
<feColorMatrix in="SourceAlpha" type="matrix" values="0 0 0 0 0 0 0 0 0 0 0 0 0 0 0 0 0 0 127 0" result="hardAlpha"/>
<feOffset dy="1"/>
<feGaussianBlur stdDeviation="2.5"/>
<feComposite in2="hardAlpha" operator="out"/>
<feColorMatrix type="matrix" values="0 0 0 0 0.581875 0 0 0 0 0.62324 0 0 0 0 0.7125 0 0 0 0.25 0"/>
<feBlend mode="normal" in2="BackgroundImageFix" result="effect1_dropShadow_3232_14009"/>
<feBlend mode="normal" in="SourceGraphic" in2="effect1_dropShadow_3232_14009" result="shape"/>
</filter>
</defs>
</svg>
