<svg width="24" height="24" viewBox="0 0 24 24" fill="none" xmlns="http://www.w3.org/2000/svg">
<path fill-rule="evenodd" clip-rule="evenodd" d="M0.608964 4.93853C0 6.4087 0 8.27247 0 12C0 15.7275 0 17.5913 0.608964 19.0615C1.42092 21.0217 2.97831 22.5791 4.93853 23.391C6.4087 24 8.27247 24 12 24C15.7275 24 17.5913 24 19.0615 23.391C21.0217 22.5791 22.5791 21.0217 23.391 19.0615C24 17.5913 24 15.7275 24 12C24 8.27247 24 6.4087 23.391 4.93853C22.5791 2.97831 21.0217 1.42092 19.0615 0.608964C17.5913 0 15.7275 0 12 0C8.27247 0 6.4087 0 4.93853 0.608964C2.97831 1.42092 1.42092 2.97831 0.608964 4.93853ZM19.4776 10.5092L10.463 6.47606L9.60541 6.09234L6.77319 4.82521C6.54106 4.72137 6.26872 4.82534 6.16488 5.05743L5.1005 7.43643C4.99666 7.66856 5.10063 7.9409 5.33275 8.04474L5.70432 8.21092L5.05928 9.65261C4.95547 9.88473 5.05944 10.157 5.29153 10.2609L9.27197 12.0419V14.2654L5.51947 13.6269C5.51947 12.8685 4.991 12.2127 4.25 12.0514V19.2148C4.991 19.0536 5.51947 18.3978 5.51947 17.6394L6.97 17.3958L7.85468 17.2471L9.28914 17.006C9.95949 16.8934 10.451 16.2956 10.451 15.6159C10.9103 15.5287 11.2576 15.1252 11.2576 14.6405V12.9302L13.2167 13.8066L14.0743 14.1903L15.9152 15.0139C16.1474 15.1178 16.4197 15.0138 16.5235 14.7817L17.7757 11.9829L19.4499 11.3611C19.8363 11.2175 19.8538 10.6775 19.4776 10.5092Z" fill="#FDB022"/>
</svg>
