<svg width="52" height="52" viewBox="0 0 52 52" fill="none" xmlns="http://www.w3.org/2000/svg">
<g clip-path="url(#clip0_1299_23660)">
<g filter="url(#filter0_d_1299_23660)">
<path d="M17.8139 9.12521V0.926473L3.03223 15.7082H11.2311C14.8667 15.7082 17.8139 12.7609 17.8139 9.12521Z" fill="#6FD5AC"/>
<path d="M37.0658 22.1239L28.9391 13.9972L27.4954 15.4408C25.9819 16.9543 25.1878 19.0433 25.3149 21.1798C25.316 21.199 25.3173 21.2182 25.3186 21.2374C25.3311 21.4131 25.3529 21.5862 25.3834 21.7562C25.3961 21.8272 25.4104 21.8977 25.4262 21.9676C25.4344 22.0038 25.443 22.0399 25.452 22.0758C25.6691 22.9442 26.1187 23.7189 26.7318 24.3319C27.0379 24.6381 27.3847 24.9036 27.7635 25.1198C28.1333 25.3309 28.5337 25.4949 28.9566 25.6037C28.9698 25.6071 28.9831 25.6105 28.9964 25.6138L29.003 25.6154C29.2875 25.6856 29.5819 25.7309 29.8839 25.7487C32.0412 25.8757 34.1219 25.0679 35.6222 23.5675L37.0658 22.1239Z" fill="#37BE88"/>
<path d="M49.1149 4.34663L46.7163 1.94813C45.1348 0.366603 42.5703 0.365892 40.988 1.94813L40.6985 2.23771L28.9391 13.9972L37.0658 22.1239L43.0142 16.1755L49.1149 10.0749C50.6971 8.49272 50.6971 5.92888 49.1149 4.34663Z" fill="#2FA274"/>
<path d="M26.7318 24.3319C26.1187 23.7189 25.6691 22.9442 25.452 22.0758L23.4682 24.0594C22.4919 25.0358 22.4919 26.6187 23.4682 27.5949C24.4446 28.5714 26.0275 28.5714 27.0038 27.5949L28.9873 25.6115L28.9566 25.6037C28.5337 25.4949 28.1333 25.3309 27.7635 25.1198C27.3847 24.9036 27.0379 24.6381 26.7318 24.3319Z" fill="#2FA274"/>
<path fill-rule="evenodd" clip-rule="evenodd" d="M8.95875 22.6777C9.15401 22.4824 9.47059 22.4824 9.66586 22.6777L11.5852 24.597L13.5045 22.6777C13.6998 22.4824 14.0164 22.4824 14.2116 22.6777C14.4069 22.873 14.4069 23.1895 14.2116 23.3848L12.2923 25.3041L14.2116 27.2234C14.4069 27.4187 14.4069 27.7353 14.2116 27.9305C14.0163 28.1258 13.6997 28.1258 13.5045 27.9305L11.5852 26.0112L9.66589 27.9305C9.47062 28.1258 9.15404 28.1258 8.95878 27.9305C8.76352 27.7353 8.76352 27.4187 8.95878 27.2234L10.8781 25.3041L8.95875 23.3848C8.76349 23.1895 8.76349 22.873 8.95875 22.6777ZM8.95875 31.7956C9.15401 31.6003 9.47059 31.6003 9.66586 31.7956L11.5852 33.7149L13.5043 31.7958C13.6996 31.6005 14.0162 31.6005 14.2114 31.7958C14.4067 31.991 14.4067 32.3076 14.2114 32.5029L12.2923 34.422L14.2116 36.3413C14.4069 36.5366 14.4069 36.8532 14.2116 37.0484C14.0163 37.2437 13.6997 37.2437 13.5045 37.0484L11.5852 35.1291L9.66569 37.0486C9.47043 37.2439 9.15384 37.2439 8.95858 37.0486C8.76332 36.8533 8.76332 36.5367 8.95858 36.3415L10.878 34.422L8.95875 32.5027C8.76349 32.3075 8.76349 31.9909 8.95875 31.7956ZM19.3094 34.422C19.3094 34.1459 19.5333 33.922 19.8094 33.922H37.0658C37.342 33.922 37.5658 34.1459 37.5658 34.422C37.5658 34.6982 37.342 34.922 37.0658 34.922H19.8094C19.5333 34.922 19.3094 34.6982 19.3094 34.422ZM8.95875 40.9135C9.15401 40.7183 9.47059 40.7183 9.66586 40.9135L11.5852 42.8328L13.5045 40.9135C13.6998 40.7183 14.0164 40.7183 14.2116 40.9135C14.4069 41.1088 14.4069 41.4254 14.2116 41.6206L12.2923 43.54L14.2116 45.4593C14.4069 45.6545 14.4069 45.9711 14.2116 46.1664C14.0163 46.3616 13.6997 46.3616 13.5045 46.1664L11.5852 44.2471L9.66589 46.1664C9.47062 46.3616 9.15404 46.3616 8.95878 46.1664C8.76352 45.9711 8.76352 45.6545 8.95878 45.4593L10.8781 43.54L8.95875 41.6206C8.76349 41.4254 8.76349 41.1088 8.95875 40.9135ZM19.3094 43.5399C19.3094 43.2638 19.5333 43.0399 19.8094 43.0399H37.0658C37.342 43.0399 37.5658 43.2638 37.5658 43.5399C37.5658 43.8161 37.342 44.0399 37.0658 44.0399H19.8094C19.5333 44.0399 19.3094 43.8161 19.3094 43.5399Z" fill="#288A63"/>
<path fill-rule="evenodd" clip-rule="evenodd" d="M28.9391 13.9972L40.6985 2.23771C39.6688 1.4248 38.3815 0.926473 36.9678 0.926473H17.8139V9.12521C17.8139 12.7609 14.8667 15.7082 11.2311 15.7082H3.03223V36.3352L3.0325 39.3821V45.1919C3.0325 48.5312 5.73955 51.2383 9.07892 51.2383H36.9681C40.3075 51.2383 43.0145 48.5312 43.0145 45.1919V29.0299L43.0142 25.9831V16.1755L37.0658 22.1239L35.6222 23.5675C34.1219 25.0679 32.0412 25.8757 29.8839 25.7487C29.5819 25.7309 29.2875 25.6856 29.003 25.6154L28.9964 25.6138L28.9873 25.6115L27.0038 27.5949C26.0275 28.5714 24.4446 28.5714 23.4682 27.5949C22.4919 26.6187 22.4919 25.0358 23.4682 24.0594L25.452 22.0758C25.443 22.0399 25.4344 22.0038 25.4262 21.9676C25.4104 21.8977 25.3961 21.8272 25.3834 21.7562C25.3529 21.5862 25.3311 21.4131 25.3186 21.2374C25.3173 21.2182 25.316 21.199 25.3149 21.1798C25.1878 19.0433 25.9819 16.9543 27.4954 15.4408L28.9391 13.9972ZM8.95875 22.6777C9.15401 22.4824 9.47059 22.4824 9.66586 22.6777L11.5852 24.597L13.5045 22.6777C13.6998 22.4824 14.0164 22.4824 14.2116 22.6777C14.4069 22.873 14.4069 23.1895 14.2116 23.3848L12.2923 25.3041L14.2116 27.2234C14.4069 27.4187 14.4069 27.7353 14.2116 27.9305C14.0163 28.1258 13.6997 28.1258 13.5045 27.9305L11.5852 26.0112L9.66589 27.9305C9.47062 28.1258 9.15404 28.1258 8.95878 27.9305C8.76352 27.7353 8.76352 27.4187 8.95878 27.2234L10.8781 25.3041L8.95875 23.3848C8.76349 23.1895 8.76349 22.873 8.95875 22.6777ZM8.95875 31.7956C9.15401 31.6003 9.47059 31.6003 9.66586 31.7956L11.5852 33.7149L13.5043 31.7958C13.6996 31.6005 14.0162 31.6005 14.2114 31.7958C14.4067 31.991 14.4067 32.3076 14.2114 32.5029L12.2923 34.422L14.2116 36.3413C14.4069 36.5366 14.4069 36.8532 14.2116 37.0484C14.0163 37.2437 13.6997 37.2437 13.5045 37.0484L11.5852 35.1291L9.66569 37.0486C9.47043 37.2439 9.15384 37.2439 8.95858 37.0486C8.76332 36.8533 8.76332 36.5367 8.95858 36.3415L10.878 34.422L8.95875 32.5027C8.76349 32.3075 8.76349 31.9909 8.95875 31.7956ZM19.3094 34.422C19.3094 34.1459 19.5333 33.922 19.8094 33.922H37.0658C37.342 33.922 37.5658 34.1459 37.5658 34.422C37.5658 34.6982 37.342 34.922 37.0658 34.922H19.8094C19.5333 34.922 19.3094 34.6982 19.3094 34.422ZM8.95875 40.9135C9.15401 40.7183 9.47059 40.7183 9.66586 40.9135L11.5852 42.8328L13.5045 40.9135C13.6998 40.7183 14.0164 40.7183 14.2116 40.9135C14.4069 41.1088 14.4069 41.4254 14.2116 41.6206L12.2923 43.54L14.2116 45.4593C14.4069 45.6545 14.4069 45.9711 14.2116 46.1664C14.0163 46.3616 13.6997 46.3616 13.5045 46.1664L11.5852 44.2471L9.66589 46.1664C9.47062 46.3616 9.15404 46.3616 8.95878 46.1664C8.76352 45.9711 8.76352 45.6545 8.95878 45.4593L10.8781 43.54L8.95875 41.6206C8.76349 41.4254 8.76349 41.1088 8.95875 40.9135ZM19.3094 43.5399C19.3094 43.2638 19.5333 43.0399 19.8094 43.0399H37.0658C37.342 43.0399 37.5658 43.2638 37.5658 43.5399C37.5658 43.8161 37.342 44.0399 37.0658 44.0399H19.8094C19.5333 44.0399 19.3094 43.8161 19.3094 43.5399Z" fill="#C0EDDB"/>
</g>
</g>
<defs>
<filter id="filter0_d_1299_23660" x="-4.96777" y="-6.23828" width="63.2693" height="66.4766" filterUnits="userSpaceOnUse" color-interpolation-filters="sRGB">
<feFlood flood-opacity="0" result="BackgroundImageFix"/>
<feColorMatrix in="SourceAlpha" type="matrix" values="0 0 0 0 0 0 0 0 0 0 0 0 0 0 0 0 0 0 127 0" result="hardAlpha"/>
<feOffset dy="1"/>
<feGaussianBlur stdDeviation="4"/>
<feComposite in2="hardAlpha" operator="out"/>
<feColorMatrix type="matrix" values="0 0 0 0 0.807843 0 0 0 0 0.819608 0 0 0 0 0.894118 0 0 0 0.15 0"/>
<feBlend mode="normal" in2="BackgroundImageFix" result="effect1_dropShadow_1299_23660"/>
<feBlend mode="normal" in="SourceGraphic" in2="effect1_dropShadow_1299_23660" result="shape"/>
</filter>
<clipPath id="clip0_1299_23660">
<rect width="52" height="52" fill="white" transform="translate(0.666626)"/>
</clipPath>
</defs>
</svg>
