<svg width="33" height="32" viewBox="0 0 33 32" fill="none" xmlns="http://www.w3.org/2000/svg">
<g clip-path="url(#clip0_2343_91044)">
<g filter="url(#filter0_d_2343_91044)">
<path d="M11.3855 5.61551V0.570137L2.28906 9.66658H7.3345C9.57181 9.66658 11.3855 7.85289 11.3855 5.61551Z" fill="#D5D9EB"/>
<path d="M23.2328 13.6147L18.2317 8.61366L17.3433 9.50201C16.4119 10.4334 15.9233 11.7189 16.0015 13.0337C16.0022 13.0455 16.0029 13.0573 16.0038 13.0691C16.0115 13.1773 16.0248 13.2838 16.0436 13.3884C16.0515 13.4321 16.0603 13.4755 16.07 13.5185C16.075 13.5408 16.0803 13.563 16.0858 13.5851C16.2194 14.1195 16.4961 14.5962 16.8734 14.9735C17.0618 15.1619 17.2752 15.3253 17.5083 15.4583C17.7359 15.5882 17.9823 15.6892 18.2425 15.7561C18.2507 15.7582 18.2588 15.7603 18.267 15.7623L18.2711 15.7633C18.4461 15.8065 18.6273 15.8344 18.8132 15.8454C20.1407 15.9235 21.4212 15.4264 22.3444 14.5031L23.2328 13.6147Z" fill="#717BBC"/>
<path d="M30.6476 2.67485L29.1716 1.19885C28.1984 0.225602 26.6202 0.225164 25.6465 1.19885L25.4683 1.37705L18.2317 8.61366L23.2328 13.6147L26.8934 9.95414L30.6476 6.19991C31.6213 5.22629 31.6213 3.64854 30.6476 2.67485Z" fill="#4E5BA6"/>
<path d="M16.8734 14.9735C16.4961 14.5962 16.2194 14.1195 16.0858 13.5851L14.8651 14.8058C14.2643 15.4066 14.2643 16.3807 14.8651 16.9815C15.4659 17.5824 16.44 17.5824 17.0408 16.9815L18.2614 15.7609L18.2425 15.7561C17.9823 15.6892 17.7359 15.5882 17.5083 15.4583C17.2752 15.3253 17.0618 15.1619 16.8734 14.9735Z" fill="#4E5BA6"/>
<path fill-rule="evenodd" clip-rule="evenodd" d="M5.93615 13.9555C6.05631 13.8353 6.25113 13.8353 6.3713 13.9555L7.55242 15.1366L8.73355 13.9555C8.85371 13.8353 9.04853 13.8353 9.16869 13.9555C9.28885 14.0757 9.28885 14.2705 9.16869 14.3906L7.98756 15.5718L9.16867 16.7529C9.28883 16.873 9.28883 17.0679 9.16867 17.188C9.04851 17.3082 8.85369 17.3082 8.73353 17.188L7.55242 16.0069L6.37131 17.188C6.25115 17.3082 6.05633 17.3082 5.93617 17.188C5.81601 17.0679 5.81601 16.873 5.93617 16.7529L7.11728 15.5718L5.93615 14.3906C5.81599 14.2705 5.81599 14.0757 5.93615 13.9555ZM5.93615 19.5665C6.05631 19.4464 6.25113 19.4464 6.3713 19.5665L7.5524 20.7476L8.73342 19.5666C8.85359 19.4465 9.04841 19.4465 9.16857 19.5666C9.28873 19.6868 9.28873 19.8816 9.16857 20.0018L7.98755 21.1828L9.16867 22.3639C9.28883 22.4841 9.28883 22.6789 9.16867 22.799C9.04851 22.9192 8.85369 22.9192 8.73353 22.799L7.5524 21.6179L6.37119 22.7991C6.25103 22.9193 6.05621 22.9193 5.93605 22.7991C5.81589 22.679 5.81589 22.4841 5.93605 22.364L7.11726 21.1828L5.93615 20.0017C5.81599 19.8815 5.81599 19.6867 5.93615 19.5665ZM12.3058 21.1828C12.3058 21.0128 12.4436 20.8751 12.6135 20.8751H23.2328C23.4028 20.8751 23.5405 21.0128 23.5405 21.1828C23.5405 21.3527 23.4028 21.4905 23.2328 21.4905H12.6135C12.4436 21.4905 12.3058 21.3527 12.3058 21.1828ZM5.93615 25.1775C6.05631 25.0574 6.25113 25.0574 6.3713 25.1775L7.55242 26.3587L8.73355 25.1775C8.85371 25.0574 9.04853 25.0574 9.16869 25.1775C9.28885 25.2977 9.28885 25.4925 9.16869 25.6127L7.98756 26.7938L9.16867 27.9749C9.28883 28.0951 9.28883 28.2899 9.16867 28.4101C9.04851 28.5302 8.85369 28.5302 8.73353 28.4101L7.55242 27.229L6.37131 28.4101C6.25115 28.5302 6.05633 28.5302 5.93617 28.4101C5.81601 28.2899 5.81601 28.0951 5.93617 27.9749L7.11728 26.7938L5.93615 25.6127C5.81599 25.4925 5.81599 25.2977 5.93615 25.1775ZM12.3058 26.7938C12.3058 26.6239 12.4436 26.4861 12.6135 26.4861H23.2328C23.4028 26.4861 23.5405 26.6239 23.5405 26.7938C23.5405 26.9637 23.4028 27.1015 23.2328 27.1015H12.6135C12.4436 27.1015 12.3058 26.9637 12.3058 26.7938Z" fill="#3E4784"/>
<path fill-rule="evenodd" clip-rule="evenodd" d="M18.2317 8.61366L25.4683 1.37705C24.8347 0.8768 24.0424 0.570137 23.1725 0.570137H11.3855V5.61551C11.3855 7.85289 9.57181 9.66658 7.3345 9.66658H2.28906V22.3601L2.28923 24.2351V27.8104C2.28923 29.8654 3.95511 31.5312 6.01011 31.5312H23.1727C25.2277 31.5312 26.8935 29.8654 26.8935 27.8104V17.8646L26.8934 15.9896V9.95414L23.2328 13.6147L22.3444 14.5031C21.4212 15.4264 20.1407 15.9235 18.8132 15.8454C18.6273 15.8344 18.4461 15.8065 18.2711 15.7633L18.267 15.7623L18.2614 15.7609L17.0408 16.9815C16.44 17.5824 15.4659 17.5824 14.8651 16.9815C14.2643 16.3807 14.2643 15.4066 14.8651 14.8058L16.0858 13.5851C16.0803 13.563 16.075 13.5408 16.07 13.5185C16.0603 13.4755 16.0515 13.4321 16.0436 13.3884C16.0248 13.2838 16.0115 13.1773 16.0038 13.0691C16.0029 13.0573 16.0022 13.0455 16.0015 13.0337C15.9233 11.7189 16.4119 10.4334 17.3433 9.50201L18.2317 8.61366ZM5.93615 13.9555C6.05631 13.8353 6.25113 13.8353 6.3713 13.9555L7.55242 15.1366L8.73355 13.9555C8.85371 13.8353 9.04853 13.8353 9.16869 13.9555C9.28885 14.0757 9.28885 14.2705 9.16869 14.3906L7.98756 15.5718L9.16867 16.7529C9.28883 16.873 9.28883 17.0679 9.16867 17.188C9.04851 17.3082 8.85369 17.3082 8.73353 17.188L7.55242 16.0069L6.37131 17.188C6.25115 17.3082 6.05633 17.3082 5.93617 17.188C5.81601 17.0679 5.81601 16.873 5.93617 16.7529L7.11728 15.5718L5.93615 14.3906C5.81599 14.2705 5.81599 14.0757 5.93615 13.9555ZM5.93615 19.5665C6.05631 19.4464 6.25113 19.4464 6.3713 19.5665L7.5524 20.7476L8.73342 19.5666C8.85359 19.4465 9.04841 19.4465 9.16857 19.5666C9.28873 19.6868 9.28873 19.8816 9.16857 20.0018L7.98755 21.1828L9.16867 22.3639C9.28883 22.4841 9.28883 22.6789 9.16867 22.799C9.04851 22.9192 8.85369 22.9192 8.73353 22.799L7.5524 21.6179L6.37119 22.7991C6.25103 22.9193 6.05621 22.9193 5.93605 22.7991C5.81589 22.679 5.81589 22.4841 5.93605 22.364L7.11726 21.1828L5.93615 20.0017C5.81599 19.8815 5.81599 19.6867 5.93615 19.5665ZM12.3058 21.1828C12.3058 21.0128 12.4436 20.8751 12.6135 20.8751H23.2328C23.4028 20.8751 23.5405 21.0128 23.5405 21.1828C23.5405 21.3527 23.4028 21.4905 23.2328 21.4905H12.6135C12.4436 21.4905 12.3058 21.3527 12.3058 21.1828ZM5.93615 25.1775C6.05631 25.0574 6.25113 25.0574 6.3713 25.1775L7.55242 26.3587L8.73355 25.1775C8.85371 25.0574 9.04853 25.0574 9.16869 25.1775C9.28885 25.2977 9.28885 25.4925 9.16869 25.6127L7.98756 26.7938L9.16867 27.9749C9.28883 28.0951 9.28883 28.2899 9.16867 28.4101C9.04851 28.5302 8.85369 28.5302 8.73353 28.4101L7.55242 27.229L6.37131 28.4101C6.25115 28.5302 6.05633 28.5302 5.93617 28.4101C5.81601 28.2899 5.81601 28.0951 5.93617 27.9749L7.11728 26.7938L5.93615 25.6127C5.81599 25.4925 5.81599 25.2977 5.93615 25.1775ZM12.3058 26.7938C12.3058 26.6239 12.4436 26.4861 12.6135 26.4861H23.2328C23.4028 26.4861 23.5405 26.6239 23.5405 26.7938C23.5405 26.9637 23.4028 27.1015 23.2328 27.1015H12.6135C12.4436 27.1015 12.3058 26.9637 12.3058 26.7938Z" fill="#EAECF5"/>
</g>
</g>
<defs>
<filter id="filter0_d_2343_91044" x="-5.71094" y="-6.53125" width="45.0888" height="47.0625" filterUnits="userSpaceOnUse" color-interpolation-filters="sRGB">
<feFlood flood-opacity="0" result="BackgroundImageFix"/>
<feColorMatrix in="SourceAlpha" type="matrix" values="0 0 0 0 0 0 0 0 0 0 0 0 0 0 0 0 0 0 127 0" result="hardAlpha"/>
<feOffset dy="1"/>
<feGaussianBlur stdDeviation="4"/>
<feComposite in2="hardAlpha" operator="out"/>
<feColorMatrix type="matrix" values="0 0 0 0 0.81125 0 0 0 0 0.813125 0 0 0 0 0.825 0 0 0 0.15 0"/>
<feBlend mode="normal" in2="BackgroundImageFix" result="effect1_dropShadow_2343_91044"/>
<feBlend mode="normal" in="SourceGraphic" in2="effect1_dropShadow_2343_91044" result="shape"/>
</filter>
<clipPath id="clip0_2343_91044">
<rect width="32" height="32" fill="white" transform="translate(0.833313)"/>
</clipPath>
</defs>
</svg>
