<svg width="60" height="60" viewBox="0 0 60 60" fill="none" xmlns="http://www.w3.org/2000/svg">
<g filter="url(#filter0_d_1299_23640)">
<path d="M15.0825 8.85502C14.9335 6.80315 13.32 5.12178 11.276 4.88829C10.6193 4.81334 9.98951 4.8889 9.41274 5.08096C8.62624 3.72784 7.12677 2.84018 5.42793 2.93616C3.24058 3.05945 1.47268 4.8433 1.36554 7.03156C1.3304 7.75266 1.4736 8.43638 1.75269 9.04474C1.12006 9.88242 0.74905 10.9285 0.762049 12.0621C0.792213 14.6885 2.93204 16.8564 5.55773 16.9192C6.54441 16.9429 7.4668 16.6753 8.24599 16.1971L9.75673 17.7078C10.695 18.646 12.2992 17.9815 12.2992 16.6546V13.2181C14.0265 12.5669 15.2267 10.841 15.0825 8.85502Z" fill="#FEA3B4"/>
<path d="M22.9423 2.43346C23.741 1.41611 24.9811 0.761841 26.3748 0.761841C27.85 0.761841 29.1533 1.49482 29.9429 2.61566C31.6011 2.86967 32.8713 4.30221 32.8713 6.03151C32.8713 7.94008 31.3241 9.48728 29.4155 9.48728C29.0723 9.48728 28.7411 9.4365 28.4282 9.34337L27.2902 12.0908C26.9809 12.8375 25.9231 12.8375 25.6138 12.0908L24.3998 9.16004C24.0723 9.26303 23.7238 9.31879 23.3624 9.31879C21.4537 9.31879 19.9065 7.77158 19.9065 5.86302C19.9065 4.09665 21.2319 2.64085 22.9423 2.43346Z" fill="#FEA3B4"/>
<path d="M39.9868 5.03935C40.2245 4.96816 40.4708 4.91717 40.7236 4.88833C41.3803 4.81328 42.0101 4.88894 42.5868 5.08089C43.3733 3.72778 44.8727 2.84022 46.5714 2.9361C48.7589 3.05939 50.5268 4.84324 50.6339 7.0315C50.6692 7.7526 50.526 8.43632 50.2468 9.04478C50.8794 9.88246 51.2504 10.9285 51.2374 12.062C51.2073 14.6884 49.0675 16.8565 46.4418 16.9192C45.4552 16.9429 44.5328 16.6753 43.7536 16.197L42.2428 17.7078C41.3046 18.6461 39.7003 17.9816 39.7003 16.6545V13.2181C37.9731 12.5669 36.7728 10.8409 36.917 8.85495C36.9534 8.35405 37.0771 7.87508 37.273 7.43399C37.273 7.43399 37.87 6.2861 38.457 5.81506C38.9794 5.39582 39.9868 5.03935 39.9868 5.03935Z" fill="#FEA3B4"/>
<path d="M8.75198 28.6581C8.49285 29.3921 8.28367 30.1482 8.13079 30.9225C13.5313 30.906 21.474 27.3517 26.3773 22.5106C31.0566 27.1304 38.5143 30.8751 43.8683 30.9225C43.8617 30.8892 43.8551 30.856 43.8483 30.8228C43.6974 30.0832 43.4957 29.3606 43.2477 28.6581C40.8418 21.8436 34.029 16.9303 25.9996 16.9303C17.9702 16.9303 11.1579 21.8436 8.75198 28.6581Z" fill="#D92D20"/>
<path d="M8.66336 39.507C9.48588 41.9196 10.9395 44.1096 13.144 46.2115C14.1754 47.1949 14.8276 47.6818 16.0374 48.4348C19.4686 50.5705 22.3214 51.2383 25.9996 51.2383C34.029 51.2383 40.8418 46.325 43.2477 39.5105C43.7302 38.1438 44.0358 36.7007 44.1382 35.2054C44.1566 34.9363 44.1684 34.6656 44.1735 34.3934C44.1754 34.2906 44.1764 34.1876 44.1764 34.0844C44.1764 33.9038 44.1735 33.7239 44.1676 33.5448C44.1384 32.6518 44.0368 31.776 43.8683 30.9225C38.5143 30.8751 31.0566 27.1304 26.3773 22.5106C21.474 27.3517 13.5313 30.906 8.13079 30.9225C8.12255 30.9642 8.11448 31.006 8.10656 31.0478C7.95251 31.8617 7.85928 32.6955 7.83147 33.5448C7.82561 33.724 7.82265 33.9038 7.82265 34.0843C7.82265 35.9806 8.14988 37.8051 8.75198 39.5105C8.72239 39.5095 8.69284 39.5083 8.66336 39.507Z" fill="#FECDD6"/>
<path fill-rule="evenodd" clip-rule="evenodd" d="M14.8636 32.2646C14.9797 31.8312 15.4252 31.574 15.8587 31.6901L19.1935 32.5838C19.6269 32.6999 19.8841 33.1455 19.768 33.5789C19.6518 34.0123 19.2063 34.2695 18.7729 34.1534L18.1526 33.9872C18.1556 34.0154 18.1571 34.044 18.1571 34.073V35.5096C18.1571 35.9583 17.7933 36.3221 17.3446 36.3221C16.8958 36.3221 16.5321 35.9583 16.5321 35.5096V34.073C16.5321 33.8941 16.5898 33.7288 16.6877 33.5946L15.4381 33.2597C15.0046 33.1436 14.7474 32.6981 14.8636 32.2646ZM37.1343 32.2646C37.2504 32.6981 36.9932 33.1436 36.5598 33.2597L35.3105 33.5945C35.4084 33.7287 35.4662 33.8941 35.4662 34.073V35.5096C35.4662 35.9583 35.1025 36.3221 34.6537 36.3221C34.205 36.3221 33.8412 35.9583 33.8412 35.5096V34.073C33.8412 34.0439 33.8427 34.0153 33.8457 33.987L33.2248 34.1534C32.7914 34.2695 32.3459 34.0123 32.2297 33.5789C32.1136 33.1455 32.3708 32.6999 32.8042 32.5838L36.1391 31.6901C36.5726 31.574 37.0181 31.8312 37.1343 32.2646ZM25.9991 36.3854C25.3334 36.3854 24.7373 36.6787 24.33 37.146C24.0352 37.4843 23.522 37.5196 23.1837 37.2248C22.8454 36.93 22.8101 36.4168 23.1049 36.0784C23.8071 35.2726 24.8433 34.7604 25.9991 34.7604C27.1549 34.7604 28.1909 35.2727 28.8932 36.0784C29.188 36.4167 29.1528 36.9299 28.8145 37.2247C28.4762 37.5196 27.963 37.4844 27.6682 37.1461C27.2607 36.6786 26.6647 36.3854 25.9991 36.3854Z" fill="#F63D68"/>
<path fill-rule="evenodd" clip-rule="evenodd" d="M18.5111 10.6198C18.9598 10.6198 19.3236 10.9835 19.3236 11.4323V13.3355C19.3236 13.7843 18.9598 14.148 18.5111 14.148C18.0623 14.148 17.6986 13.7843 17.6986 13.3355V11.4323C17.6986 10.9835 18.0623 10.6198 18.5111 10.6198ZM33.5178 12.524C33.9666 12.524 34.3303 12.8878 34.3303 13.3365V14.5216C34.3303 14.9704 33.9666 15.3341 33.5178 15.3341C33.0691 15.3341 32.7053 14.9704 32.7053 14.5216V13.3365C32.7053 12.8878 33.0691 12.524 33.5178 12.524ZM3.38721 19.9279C3.70451 19.6106 4.21895 19.6106 4.53625 19.9279L7.53194 22.9236C7.84924 23.2409 7.84924 23.7554 7.53194 24.0727C7.21464 24.39 6.7002 24.39 6.38289 24.0727L3.38721 21.077C3.06991 20.7597 3.06991 20.2452 3.38721 19.9279ZM48.6122 19.9279C48.9295 20.2452 48.9295 20.7597 48.6122 21.077L45.6165 24.0727C45.2992 24.39 44.7847 24.39 44.4674 24.0727C44.1501 23.7554 44.1501 23.2409 44.4674 22.9236L47.4631 19.9279C47.7804 19.6106 48.2949 19.6106 48.6122 19.9279Z" fill="#F97066"/>
<path fill-rule="evenodd" clip-rule="evenodd" d="M7.82265 34.0843C7.82265 35.9806 8.14988 37.8051 8.75198 39.5105C8.72239 39.5095 8.69284 39.5083 8.66336 39.507C5.20601 39.3503 2.46049 36.983 2.46049 34.0843C2.46049 31.161 5.25305 28.7781 8.75198 28.6581C8.49285 29.3921 8.28367 30.1482 8.13079 30.9225C8.12255 30.9642 8.11448 31.006 8.10656 31.0478C7.95251 31.8617 7.85928 32.6955 7.83147 33.5448C7.21115 33.3648 6.60779 33.281 6.08715 33.2639C5.63866 33.2491 5.26313 33.6007 5.24837 34.0492C5.23362 34.4977 5.58523 34.8732 6.03371 34.888C6.48081 34.9027 7.02234 34.9837 7.5704 35.1649C7.66435 35.1959 7.75993 35.2089 7.85337 35.2057C7.83279 34.8375 7.82265 34.4639 7.82265 34.0843Z" fill="#FEA3B4"/>
<path d="M6.08715 33.2639C5.63866 33.2491 5.26313 33.6007 5.24837 34.0492C5.23362 34.4977 5.58523 34.8732 6.03371 34.888C6.48081 34.9027 7.02234 34.9837 7.5704 35.1649C7.66435 35.1959 7.75993 35.2089 7.85337 35.2057C7.83279 34.8375 7.82265 34.4639 7.82265 34.0843C7.82265 33.9038 7.82561 33.724 7.83147 33.5448C7.21115 33.3648 6.60779 33.281 6.08715 33.2639Z" fill="#FD6F8E"/>
<path fill-rule="evenodd" clip-rule="evenodd" d="M43.8483 30.8228C43.6974 30.0832 43.4957 29.3606 43.2477 28.6581C46.7467 28.7781 49.5393 31.1611 49.5393 34.0843C49.5393 37.0077 46.7467 39.3907 43.2477 39.5105C43.7302 38.1438 44.0358 36.7007 44.1382 35.2054C44.234 35.2096 44.3322 35.1968 44.4287 35.1649C44.9766 34.9837 45.5181 34.9027 45.9652 34.888C46.4137 34.8732 46.7653 34.4977 46.7506 34.0492C46.7358 33.6007 46.3603 33.2491 45.9118 33.2639C45.3912 33.281 44.7879 33.3648 44.1676 33.5448C44.1384 32.6518 44.0368 31.776 43.8683 30.9225L43.8483 30.8228Z" fill="#FEA3B4"/>
<path d="M45.9652 34.888C46.4137 34.8732 46.7653 34.4977 46.7506 34.0492C46.7358 33.6007 46.3603 33.2491 45.9118 33.2639C45.3912 33.281 44.7879 33.3648 44.1676 33.5448C44.1735 33.7239 44.1764 33.9038 44.1764 34.0844C44.1764 34.1876 44.1754 34.2906 44.1735 34.3934C44.1684 34.6656 44.1566 34.9363 44.1382 35.2054C44.234 35.2096 44.3322 35.1968 44.4287 35.1649C44.9766 34.9837 45.5181 34.9027 45.9652 34.888Z" fill="#FD6F8E"/>
</g>
<defs>
<filter id="filter0_d_1299_23640" x="-7.23828" y="-6.23816" width="66.4761" height="66.4764" filterUnits="userSpaceOnUse" color-interpolation-filters="sRGB">
<feFlood flood-opacity="0" result="BackgroundImageFix"/>
<feColorMatrix in="SourceAlpha" type="matrix" values="0 0 0 0 0 0 0 0 0 0 0 0 0 0 0 0 0 0 127 0" result="hardAlpha"/>
<feOffset dy="1"/>
<feGaussianBlur stdDeviation="4"/>
<feComposite in2="hardAlpha" operator="out"/>
<feColorMatrix type="matrix" values="0 0 0 0 0.807843 0 0 0 0 0.819608 0 0 0 0 0.894118 0 0 0 0.15 0"/>
<feBlend mode="normal" in2="BackgroundImageFix" result="effect1_dropShadow_1299_23640"/>
<feBlend mode="normal" in="SourceGraphic" in2="effect1_dropShadow_1299_23640" result="shape"/>
</filter>
</defs>
</svg>
