<svg width="22" height="22" viewBox="0 0 22 22" fill="none" xmlns="http://www.w3.org/2000/svg">
<path fill-rule="evenodd" clip-rule="evenodd" d="M18.5552 3.39327C16.568 1.38968 13.8615 0.264884 11.0407 0.273487C5.18665 0.273487 0.422277 5.0427 0.422277 10.9052C0.42216 12.7709 0.912671 14.6037 1.84446 16.2196L0.333344 21.7299L5.96525 20.2504C7.5218 21.0997 9.26609 21.5453 11.0389 21.5466C16.9073 21.5478 21.6654 16.7876 21.6667 10.9144C21.6673 8.09359 20.548 5.38807 18.5552 3.39327ZM11.0442 19.7559C9.46156 19.7552 7.90829 19.3279 6.54744 18.5193L6.22391 18.3263L2.88179 19.2025L3.77065 15.9421L3.56174 15.6076C0.962071 11.4765 2.20078 6.01833 6.32852 3.41651C9.82326 1.21367 14.3767 1.72869 17.2921 4.65659C20.7431 8.11127 20.7425 13.7119 17.2907 17.1658C15.6337 18.8239 13.3874 19.7556 11.0442 19.7559ZM15.8886 13.1319C15.6219 12.9975 14.318 12.357 14.0762 12.2681C13.8344 12.1791 13.6567 12.1338 13.4762 12.4024C13.2958 12.671 12.79 13.2662 12.6353 13.445C12.4807 13.6238 12.3252 13.647 12.062 13.5126C11.7989 13.3783 10.9394 13.0981 9.92874 12.1924C9.34672 11.6551 8.84662 11.0353 8.44434 10.3527C8.28881 10.0858 8.42744 9.94258 8.56257 9.81267C8.69769 9.68281 8.82925 9.50309 8.95987 9.34737C9.07038 9.21325 9.16025 9.06331 9.22656 8.90256C9.29825 8.75381 9.29018 8.57891 9.20522 8.43735C9.13324 8.30387 8.59987 6.99619 8.38657 6.46331C8.17327 5.93044 7.9519 6.01851 7.78836 6.00604C7.62482 5.99358 7.45683 5.99802 7.28171 5.99802C7.00877 6.00439 6.75098 6.12472 6.5706 6.32983C6.33151 6.59404 5.64441 7.23897 5.64441 8.5467C5.64441 9.85443 6.59462 11.1159 6.72794 11.2956C6.86125 11.4753 8.59987 14.1575 11.2665 15.3077C11.8994 15.58 12.3936 15.7436 12.7775 15.87C13.319 16.0334 13.8911 16.0691 14.4486 15.974C14.9589 15.8993 16.0184 15.3327 16.2415 14.7126C16.4645 14.0925 16.4637 13.5561 16.397 13.4502C16.3303 13.3443 16.1562 13.268 15.8886 13.1319Z" fill="#288A63"/>
</svg>
