<svg width="20" height="20" viewBox="0 0 20 20" fill="none" xmlns="http://www.w3.org/2000/svg">
<path d="M9.16665 15.2083H10.8333M4.58331 8.84996C4.58376 8.05674 4.77292 7.27502 5.13518 6.56935C5.49743 5.86368 6.02237 5.25433 6.66665 4.79163M15.4166 8.84996C15.4162 8.05674 15.2271 7.27502 14.8648 6.56935C14.5026 5.86368 13.9776 5.25433 13.3333 4.79163M13.3333 8.95829C13.3333 8.07423 12.9821 7.22639 12.357 6.60127C11.7319 5.97615 10.884 5.62496 9.99998 5.62496C9.11592 5.62496 8.26808 5.97615 7.64295 6.60127C7.01784 7.22639 6.66665 8.07423 6.66665 8.95829V11.875C6.66665 12.2065 6.53495 12.5245 6.30053 12.7589C6.06611 12.9933 5.74816 13.125 5.41665 13.125H14.5833C14.2518 13.125 13.9338 12.9933 13.6994 12.7589C13.465 12.5245 13.3333 12.2065 13.3333 11.875V8.95829Z" stroke="#414651" stroke-width="1.67" stroke-linecap="round" stroke-linejoin="round"/>
</svg>
