<svg width="43" height="40" viewBox="0 0 43 40" fill="none" xmlns="http://www.w3.org/2000/svg">
<g filter="url(#filter0_d_2999_8320)">
<path d="M36.6 17.4L34.9667 24.3667C33.5667 30.3833 30.8 32.8167 25.6 32.3167C24.7667 32.25 23.8667 32.1 22.9 31.8667L20.1 31.2C13.15 29.55 11 26.1167 12.6333 19.15L14.2667 12.1667C14.6 10.75 15 9.51667 15.5 8.5C17.45 4.46667 20.7667 3.38334 26.3333 4.7L29.1167 5.35C36.1 6.98334 38.2333 10.4333 36.6 17.4Z" fill="#A9E3D4"/>
</g>
<path d="M25.6 32.3167C24.5667 33.0167 23.2667 33.6 21.6833 34.1167L19.05 34.9833C12.4333 37.1167 8.95 35.3333 6.8 28.7167L4.66667 22.1333C2.53334 15.5167 4.3 12.0167 10.9167 9.88333L13.55 9.01667C14.2333 8.8 14.8833 8.61667 15.5 8.5C15 9.51667 14.6 10.75 14.2667 12.1667L12.6333 19.15C11 26.1167 13.15 29.55 20.1 31.2L22.9 31.8667C23.8667 32.1 24.7667 32.25 25.6 32.3167Z" fill="#33C5AB"/>
<path d="M21.5667 14.2167L29.65 16.2667" stroke="#6DD1BB" stroke-width="1.5" stroke-linecap="round" stroke-linejoin="round"/>
<path d="M19.9333 20.6667L24.7667 21.9" stroke="#6DD1BB" stroke-width="1.5" stroke-linecap="round" stroke-linejoin="round"/>
<defs>
<filter id="filter0_d_2999_8320" x="7.11429" y="0.169098" width="35.0064" height="38.2111" filterUnits="userSpaceOnUse" color-interpolation-filters="sRGB">
<feFlood flood-opacity="0" result="BackgroundImageFix"/>
<feColorMatrix in="SourceAlpha" type="matrix" values="0 0 0 0 0 0 0 0 0 0 0 0 0 0 0 0 0 0 127 0" result="hardAlpha"/>
<feOffset dy="1"/>
<feGaussianBlur stdDeviation="2.5"/>
<feComposite in2="hardAlpha" operator="out"/>
<feColorMatrix type="matrix" values="0 0 0 0 0.581875 0 0 0 0 0.62324 0 0 0 0 0.7125 0 0 0 0.25 0"/>
<feBlend mode="normal" in2="BackgroundImageFix" result="effect1_dropShadow_2999_8320"/>
<feBlend mode="normal" in="SourceGraphic" in2="effect1_dropShadow_2999_8320" result="shape"/>
</filter>
</defs>
</svg>
