<svg width="25" height="24" viewBox="0 0 25 24" fill="none" xmlns="http://www.w3.org/2000/svg">
<path fill-rule="evenodd" clip-rule="evenodd" d="M6.9855 16.2717L8.83841 14.4057H8.28126C7.89292 14.4057 7.57813 14.0909 7.57813 13.7026V12.2964C7.57813 11.908 7.89292 11.5932 8.28126 11.5932H11.6958L16.7716 6.48562C15.5902 5.5685 14.1079 5.02161 12.5 5.02161C10.7971 5.02161 8.72135 5.70912 7.23812 7.40986C5.98019 8.85225 5.52149 10.3028 5.52149 12.0001C5.52149 13.608 6.06838 15.0904 6.9855 16.2717ZM9.37816 8.04309C9.45841 8.09502 9.48137 8.20217 9.42944 8.28242L9.35397 8.39906C9.1897 8.65296 9.17404 8.9754 9.31295 9.24398C9.5077 9.62046 9.48725 10.0721 9.25925 10.4295L9.13023 10.6317C9.07881 10.7123 8.97181 10.736 8.89122 10.6845C8.81064 10.6331 8.787 10.5261 8.83841 10.4455L8.96743 10.2433C9.12904 9.99002 9.14353 9.66987 9.00549 9.40301C8.80951 9.02408 8.83161 8.5692 9.06334 8.21103L9.13882 8.09437C9.19075 8.01412 9.2979 7.99116 9.37816 8.04309ZM10.7326 8.04309C10.8129 8.09502 10.8358 8.20217 10.7839 8.28242L10.7084 8.39906C10.5442 8.65296 10.5285 8.97539 10.6674 9.24396C10.8622 9.62046 10.8417 10.0721 10.6138 10.4295L10.4847 10.6317C10.4333 10.7123 10.3263 10.736 10.2457 10.6845C10.1651 10.6331 10.1415 10.5261 10.1929 10.4455L10.3219 10.2433C10.4835 9.99002 10.498 9.66988 10.36 9.40301C10.164 9.02408 10.1861 8.5692 10.4178 8.21103L10.4933 8.09437C10.5452 8.01412 10.6524 7.99116 10.7326 8.04309Z" fill="#53B1FD"/>
<path d="M14.1869 11.5932H16.7188C17.1071 11.5932 17.4219 11.908 17.4219 12.2964V13.7026C17.4219 14.0909 17.1071 14.4057 16.7188 14.4057H14.3088H11.3708L8.22845 17.5146C9.40977 18.4318 10.8921 18.9786 12.5 18.9786C16.348 18.9786 19.4785 15.8481 19.4785 12.0001C19.4785 10.3923 18.9316 8.90989 18.0145 7.72861L14.1869 11.5932Z" fill="#53B1FD"/>
<path fill-rule="evenodd" clip-rule="evenodd" d="M2.25736 1.75736C0.5 3.51472 0.5 6.34315 0.5 12C0.5 17.6569 0.5 20.4853 2.25736 22.2426C4.01472 24 6.84315 24 12.5 24C18.1569 24 20.9853 24 22.7426 22.2426C24.5 20.4853 24.5 17.6569 24.5 12C24.5 6.34315 24.5 3.51472 22.7426 1.75736C20.9853 0 18.1569 0 12.5 0C6.84315 0 4.01472 0 2.25736 1.75736ZM12.5 20.7365C17.3249 20.7365 21.2363 16.8251 21.2363 12.0001C21.2363 7.17518 17.3249 3.2638 12.5 3.2638C7.67507 3.2638 3.76368 7.17518 3.76368 12.0001C3.76368 16.8251 7.67507 20.7365 12.5 20.7365Z" fill="#53B1FD"/>
</svg>
