<svg width="33" height="32" viewBox="0 0 33 32" fill="none" xmlns="http://www.w3.org/2000/svg">
<g clip-path="url(#clip0_2343_91054)">
<path d="M30.1022 29.4378H2.68755C1.54736 29.4378 0.623047 28.5135 0.623047 27.3733V7.74223C0.623047 6.60205 1.54736 5.67773 2.68755 5.67773H30.1022C31.2424 5.67773 32.1667 6.60205 32.1667 7.74223V27.8713C32.1667 28.2472 32.0662 28.5996 31.8907 28.9032L30.1022 29.4378Z" fill="#FCFCFD"/>
<path d="M3.2635 28.9024C2.12331 28.9024 1.199 27.9781 1.199 26.8379V5.96289C0.584498 6.32052 0.166748 6.97883 0.166748 7.74108V27.8701C0.166748 29.0103 1.09106 29.9346 2.23125 29.9346H30.1022C30.8644 29.9346 31.5337 29.5169 31.8913 28.9024H3.2635Z" fill="#EAECF5"/>
<path d="M30.1022 3.61328H2.23125C1.85525 3.61328 1.50269 3.71378 1.19906 3.88941L0.612061 6.60191L1.199 7.74228H32.1667V5.67784C32.1667 4.53759 31.2424 3.61328 30.1022 3.61328Z" fill="#4E5BA6"/>
<path d="M5.32803 4.64514H4.8119C4.52684 4.64514 4.29578 4.41408 4.29578 4.12902V2.58058C4.29578 2.29552 4.52684 2.06445 4.8119 2.06445H5.32803C5.61309 2.06445 5.84415 2.29552 5.84415 2.58058V4.12895C5.84415 4.41402 5.61303 4.64514 5.32803 4.64514Z" fill="#D5D9EB"/>
<path d="M1.199 7.74161V3.88867C0.584498 4.2463 0.166748 4.91486 0.166748 5.67711V7.74161H1.199Z" fill="#3E4784"/>
<path d="M4.81191 3.61283V2.06445H4.29579C4.01073 2.06445 3.77966 2.29552 3.77966 2.58058V4.64508C3.77966 4.93014 4.01073 5.1612 4.29579 5.1612H5.32804C5.6131 5.1612 5.84416 4.93014 5.84416 4.64508V4.12895H5.32804C5.04298 4.12902 4.81191 3.89789 4.81191 3.61283Z" fill="#717BBC"/>
<path d="M11.0054 4.64514H10.4893C10.2042 4.64514 9.97314 4.41408 9.97314 4.12902V2.58058C9.97314 2.29552 10.2042 2.06445 10.4893 2.06445H11.0054C11.2905 2.06445 11.5215 2.29552 11.5215 2.58058V4.12895C11.5215 4.41402 11.2905 4.64514 11.0054 4.64514Z" fill="#D5D9EB"/>
<path d="M10.4893 3.61283V2.06445H9.97316C9.68809 2.06445 9.45703 2.29552 9.45703 2.58058V4.64508C9.45703 4.93014 9.68809 5.1612 9.97316 5.1612H11.0054C11.2905 5.1612 11.5215 4.93014 11.5215 4.64508V4.12895H11.0054C10.7204 4.12902 10.4893 3.89789 10.4893 3.61283Z" fill="#717BBC"/>
<path d="M16.6829 4.64514H16.1668C15.8817 4.64514 15.6506 4.41408 15.6506 4.12902V2.58058C15.6506 2.29552 15.8817 2.06445 16.1668 2.06445H16.6829C16.9679 2.06445 17.199 2.29552 17.199 2.58058V4.12895C17.199 4.41402 16.9679 4.64514 16.6829 4.64514Z" fill="#D5D9EB"/>
<path d="M16.1668 3.61283V2.06445H15.6506C15.3656 2.06445 15.1345 2.29552 15.1345 2.58058V4.64508C15.1345 4.93014 15.3656 5.1612 15.6506 5.1612H16.6829C16.968 5.1612 17.199 4.93014 17.199 4.64508V4.12895H16.6829C16.3978 4.12902 16.1668 3.89789 16.1668 3.61283Z" fill="#717BBC"/>
<path d="M22.3603 4.64514H21.8441C21.5591 4.64514 21.328 4.41408 21.328 4.12902V2.58058C21.328 2.29552 21.5591 2.06445 21.8441 2.06445H22.3603C22.6453 2.06445 22.8764 2.29552 22.8764 2.58058V4.12895C22.8764 4.41402 22.6453 4.64514 22.3603 4.64514Z" fill="#D5D9EB"/>
<path d="M21.8441 3.61283V2.06445H21.328C21.043 2.06445 20.8119 2.29552 20.8119 2.58058V4.64508C20.8119 4.93014 21.043 5.1612 21.328 5.1612H22.3603C22.6453 5.1612 22.8764 4.93014 22.8764 4.64508V4.12895H22.3603C22.0752 4.12902 21.8441 3.89789 21.8441 3.61283Z" fill="#717BBC"/>
<path d="M28.0377 4.64514H27.5216C27.2366 4.64514 27.0055 4.41408 27.0055 4.12902V2.58058C27.0055 2.29552 27.2366 2.06445 27.5216 2.06445H28.0377C28.3228 2.06445 28.5539 2.29552 28.5539 2.58058V4.12895C28.5539 4.41402 28.3228 4.64514 28.0377 4.64514Z" fill="#D5D9EB"/>
<path d="M27.5215 3.61283V2.06445H27.0054C26.7203 2.06445 26.4893 2.29552 26.4893 2.58058V4.64508C26.4893 4.93014 26.7203 5.1612 27.0054 5.1612H28.0376C28.3227 5.1612 28.5538 4.93014 28.5538 4.64508V4.12895H28.0376C27.7526 4.12902 27.5215 3.89789 27.5215 3.61283Z" fill="#717BBC"/>
<path d="M6.8764 10.8389H4.8119C4.52659 10.8389 4.29578 10.6078 4.29578 10.3228C4.29578 10.0378 4.52665 9.80664 4.8119 9.80664H6.8764C7.16171 9.80664 7.39253 10.0378 7.39253 10.3228C7.39253 10.6078 7.16165 10.8389 6.8764 10.8389Z" fill="#AFB5D9"/>
<path d="M12.0377 10.8389H9.97316C9.68784 10.8389 9.45703 10.6078 9.45703 10.3228C9.45703 10.0378 9.68791 9.80664 9.97316 9.80664H12.0377C12.323 9.80664 12.5538 10.0378 12.5538 10.3228C12.5538 10.6078 12.323 10.8389 12.0377 10.8389Z" fill="#AFB5D9"/>
<path d="M17.199 10.8389H15.1345C14.8492 10.8389 14.6184 10.6078 14.6184 10.3228C14.6184 10.0378 14.8493 9.80664 15.1345 9.80664H17.199C17.4843 9.80664 17.7152 10.0378 17.7152 10.3228C17.7152 10.6078 17.4843 10.8389 17.199 10.8389Z" fill="#AFB5D9"/>
<path d="M22.3603 10.8389H20.2958C20.0105 10.8389 19.7797 10.6078 19.7797 10.3228C19.7797 10.0378 20.0105 9.80664 20.2958 9.80664H22.3603C22.6456 9.80664 22.8764 10.0378 22.8764 10.3228C22.8764 10.6078 22.6455 10.8389 22.3603 10.8389Z" fill="#AFB5D9"/>
<path d="M27.5215 10.8389H25.457C25.1717 10.8389 24.9409 10.6078 24.9409 10.3228C24.9409 10.0378 25.1718 9.80664 25.457 9.80664H27.5215C27.8069 9.80664 28.0377 10.0378 28.0377 10.3228C28.0377 10.6078 27.8069 10.8389 27.5215 10.8389Z" fill="#4E5BA6"/>
<path d="M7.39254 15.483H4.29579C4.01073 15.483 3.77966 15.2519 3.77966 14.9668V13.4185C3.77966 13.1334 4.01073 12.9023 4.29579 12.9023H7.39254C7.6776 12.9023 7.90866 13.1334 7.90866 13.4185V14.9668C7.90866 15.2519 7.6776 15.483 7.39254 15.483Z" fill="#D5D9EB"/>
<path d="M7.39254 19.0963H4.29579C4.01073 19.0963 3.77966 18.8652 3.77966 18.5801V17.0317C3.77966 16.7467 4.01073 16.5156 4.29579 16.5156H7.39254C7.6776 16.5156 7.90866 16.7467 7.90866 17.0317V18.5801C7.90866 18.8652 7.6776 19.0963 7.39254 19.0963Z" fill="#D5D9EB"/>
<path d="M7.39254 22.7095H4.29579C4.01073 22.7095 3.77966 22.4785 3.77966 22.1934V20.645C3.77966 20.36 4.01073 20.1289 4.29579 20.1289H7.39254C7.6776 20.1289 7.90866 20.36 7.90866 20.645V22.1934C7.90866 22.4785 7.6776 22.7095 7.39254 22.7095Z" fill="#D5D9EB"/>
<path d="M7.39254 26.3209H4.29579C4.01073 26.3209 3.77966 26.0898 3.77966 25.8047V24.2564C3.77966 23.9713 4.01073 23.7402 4.29579 23.7402H7.39254C7.6776 23.7402 7.90866 23.9713 7.90866 24.2564V25.8047C7.90866 26.0898 7.6776 26.3209 7.39254 26.3209Z" fill="#D5D9EB"/>
<path d="M12.5538 15.483H9.45704C9.17198 15.483 8.94092 15.2519 8.94092 14.9668V13.4185C8.94092 13.1334 9.17198 12.9023 9.45704 12.9023H12.5538C12.8389 12.9023 13.0699 13.1334 13.0699 13.4185V14.9668C13.0699 15.2519 12.8388 15.483 12.5538 15.483Z" fill="#D5D9EB"/>
<path d="M12.5538 19.0963H9.45704C9.17198 19.0963 8.94092 18.8652 8.94092 18.5801V17.0317C8.94092 16.7467 9.17198 16.5156 9.45704 16.5156H12.5538C12.8389 16.5156 13.0699 16.7467 13.0699 17.0317V18.5801C13.0699 18.8652 12.8388 19.0963 12.5538 19.0963Z" fill="#D5D9EB"/>
<path d="M12.5538 22.7095H9.45704C9.17198 22.7095 8.94092 22.4785 8.94092 22.1934V20.645C8.94092 20.36 9.17198 20.1289 9.45704 20.1289H12.5538C12.8389 20.1289 13.0699 20.36 13.0699 20.645V22.1934C13.0699 22.4785 12.8388 22.7095 12.5538 22.7095Z" fill="#D5D9EB"/>
<path d="M12.5538 26.3209H9.45704C9.17198 26.3209 8.94092 26.0898 8.94092 25.8047V24.2564C8.94092 23.9713 9.17198 23.7402 9.45704 23.7402H12.5538C12.8389 23.7402 13.0699 23.9713 13.0699 24.2564V25.8047C13.0699 26.0898 12.8388 26.3209 12.5538 26.3209Z" fill="#D5D9EB"/>
<path d="M17.715 15.483H14.6183C14.3332 15.483 14.1022 15.2519 14.1022 14.9668V13.4185C14.1022 13.1334 14.3332 12.9023 14.6183 12.9023H17.715C18.0001 12.9023 18.2312 13.1334 18.2312 13.4185V14.9668C18.2312 15.2519 18.0001 15.483 17.715 15.483Z" fill="#D5D9EB"/>
<path d="M17.715 19.0963H14.6183C14.3332 19.0963 14.1022 18.8652 14.1022 18.5801V17.0317C14.1022 16.7467 14.3332 16.5156 14.6183 16.5156H17.715C18.0001 16.5156 18.2312 16.7467 18.2312 17.0317V18.5801C18.2312 18.8652 18.0001 19.0963 17.715 19.0963Z" fill="#D5D9EB"/>
<path d="M17.715 22.7095H14.6183C14.3332 22.7095 14.1022 22.4785 14.1022 22.1934V20.645C14.1022 20.36 14.3332 20.1289 14.6183 20.1289H17.715C18.0001 20.1289 18.2312 20.36 18.2312 20.645V22.1934C18.2312 22.4785 18.0001 22.7095 17.715 22.7095Z" fill="#D5D9EB"/>
<path d="M17.715 26.3209H14.6183C14.3332 26.3209 14.1022 26.0898 14.1022 25.8047V24.2564C14.1022 23.9713 14.3332 23.7402 14.6183 23.7402H17.715C18.0001 23.7402 18.2312 23.9713 18.2312 24.2564V25.8047C18.2312 26.0898 18.0001 26.3209 17.715 26.3209Z" fill="#D5D9EB"/>
<path d="M22.8764 15.483H19.7797C19.4946 15.483 19.2635 15.2519 19.2635 14.9668V13.4185C19.2635 13.1334 19.4946 12.9023 19.7797 12.9023H22.8764C23.1615 12.9023 23.3925 13.1334 23.3925 13.4185V14.9668C23.3925 15.2519 23.1615 15.483 22.8764 15.483Z" fill="#D5D9EB"/>
<path d="M22.8764 19.0963H19.7797C19.4946 19.0963 19.2635 18.8652 19.2635 18.5801V17.0317C19.2635 16.7467 19.4946 16.5156 19.7797 16.5156H22.8764C23.1615 16.5156 23.3925 16.7467 23.3925 17.0317V18.5801C23.3925 18.8652 23.1615 19.0963 22.8764 19.0963Z" fill="#D5D9EB"/>
<path d="M22.8764 22.7095H19.7797C19.4946 22.7095 19.2635 22.4785 19.2635 22.1934V20.645C19.2635 20.36 19.4946 20.1289 19.7797 20.1289H22.8764C23.1615 20.1289 23.3925 20.36 23.3925 20.645V22.1934C23.3925 22.4785 23.1615 22.7095 22.8764 22.7095Z" fill="#D5D9EB"/>
<path d="M22.8764 26.3209H19.7797C19.4946 26.3209 19.2635 26.0898 19.2635 25.8047V24.2564C19.2635 23.9713 19.4946 23.7402 19.7797 23.7402H22.8764C23.1615 23.7402 23.3925 23.9713 23.3925 24.2564V25.8047C23.3925 26.0898 23.1615 26.3209 22.8764 26.3209Z" fill="#D5D9EB"/>
<path d="M28.0377 15.483H24.9409C24.6559 15.483 24.4248 15.2519 24.4248 14.9668V13.4185C24.4248 13.1334 24.6559 12.9023 24.9409 12.9023H28.0377C28.3227 12.9023 28.5538 13.1334 28.5538 13.4185V14.9668C28.5539 15.2519 28.3227 15.483 28.0377 15.483Z" fill="#4E5BA6"/>
<path d="M28.0377 19.0963H24.9409C24.6559 19.0963 24.4248 18.8652 24.4248 18.5801V17.0317C24.4248 16.7467 24.6559 16.5156 24.9409 16.5156H28.0377C28.3227 16.5156 28.5538 16.7467 28.5538 17.0317V18.5801C28.5539 18.8652 28.3227 19.0963 28.0377 19.0963Z" fill="#4E5BA6"/>
<path d="M28.0377 22.7095H24.9409C24.6559 22.7095 24.4248 22.4785 24.4248 22.1934V20.645C24.4248 20.36 24.6559 20.1289 24.9409 20.1289H28.0377C28.3227 20.1289 28.5538 20.36 28.5538 20.645V22.1934C28.5539 22.4785 28.3227 22.7095 28.0377 22.7095Z" fill="#4E5BA6"/>
<path d="M28.0377 26.3228H24.9409C24.6559 26.3228 24.4248 26.0918 24.4248 25.8067V24.2583C24.4248 23.9732 24.6559 23.7422 24.9409 23.7422H28.0377C28.3227 23.7422 28.5538 23.9732 28.5538 24.2583V25.8067C28.5539 26.0918 28.3227 26.3228 28.0377 26.3228Z" fill="#4E5BA6"/>
</g>
<defs>
<clipPath id="clip0_2343_91054">
<rect width="32" height="32" fill="white" transform="translate(0.166748)"/>
</clipPath>
</defs>
</svg>
